<?xml version="1.0" encoding="utf-8"?>
<!DOCTYPE svg PUBLIC "-//W3C//DTD SVG 1.0//EN" "http://www.w3.org/TR/2001/REC-SVG-20010904/DTD/svg10.dtd">
<svg version="1.0" xmlns="http://www.w3.org/2000/svg" width="120px" height="80px" viewBox="0 0 585 324" preserveAspectRatio="xMidYMid meet">
 <g fill="#f5530f">
  <path d="M64.5 294.6 c-1.6 -0.6 -3.4 -1.6 -3.8 -2.3 -0.4 -0.7 -1.5 -1.3 -2.2 -1.3 -0.8 0 -1.5 -0.7 -1.5 -1.5 0 -0.8 -0.4 -1.5 -1 -1.5 -1.7 0 -5.8 -8.3 -7 -14.2 -0.9 -4.5 -0.8 -6.7 0.4 -11.3 1.8 -7.1 8.1 -15.6 12.6 -17 1.1 -0.3 2 -1 2 -1.5 0 -0.4 0.8 -1 1.8 -1.4 0.9 -0.3 3.5 -1.7 5.7 -3.1 2.2 -1.4 4.7 -2.8 5.5 -3.2 0.8 -0.4 1.7 -1 2 -1.3 0.3 -0.4 3.8 -2.7 7.9 -5.1 4.1 -2.4 9 -5.4 11 -6.7 2 -1.3 4.4 -2.5 5.4 -2.9 0.9 -0.3 1.7 -0.9 1.7 -1.3 0 -0.4 1.4 -1.3 3 -2 1.7 -0.7 4.8 -2.5 6.8 -3.9 2 -1.5 5.7 -3.8 8.2 -5.2 2.5 -1.3 4.7 -2.6 5 -2.9 1.2 -1.2 6 -4 6 -3.5 0 0.4 0.7 0 1.5 -0.7 3.2 -2.9 4.5 -3.8 5.3 -3.8 0.5 0 1.5 -0.7 2.2 -1.5 0.7 -0.9 1.5 -1.3 1.8 -1 0.3 0.3 2 -0.6 3.8 -2 1.8 -1.4 3.7 -2.5 4.3 -2.5 0.6 0 1.1 -0.3 1.1 -0.8 0 -0.4 1.5 -1.3 3.3 -2.1 1.7 -0.8 3.4 -1.7 3.7 -2 0.8 -1 8.9 -6.1 9.6 -6.1 0.4 0 1.5 -0.6 2.3 -1.4 0.9 -0.8 3.2 -2.3 5.1 -3.4 6.8 -3.8 15.5 -9.1 16.7 -10.2 0.7 -0.5 1.5 -1 1.9 -1 0.4 0 1.5 -0.6 2.3 -1.4 0.9 -0.7 3.6 -2.4 6.1 -3.7 2.5 -1.3 4.7 -2.7 5 -3 0.3 -0.3 2.8 -1.9 5.5 -3.4 2.8 -1.6 5.2 -3.2 5.5 -3.5 0.8 -0.9 4.3 -2.9 7.8 -4.4 1.7 -0.8 3.2 -2 3.2 -2.5 0 -0.6 0.9 -1.1 1.9 -1.1 1.1 0 2.1 -0.4 2.3 -0.8 0.3 -0.8 7.9 -5.5 15 -9.4 1.7 -0.9 4 -2.5 5.2 -3.5 1.2 -1 4.2 -2.9 6.9 -4.2 2.6 -1.3 5.2 -3 5.8 -3.8 0.6 -0.7 1.8 -1.3 2.5 -1.3 0.8 0 1.4 -0.4 1.4 -0.8 0 -0.5 1.6 -1.4 3.5 -2.2 1.9 -0.8 3.5 -1.7 3.5 -2 0 -0.7 3.9 -2.7 5.4 -2.8 0.5 0 1.2 -0.4 1.5 -0.9 0.8 -1 8.3 -5.9 9.6 -6.2 0.6 -0.1 1.7 -0.8 2.5 -1.6 2.1 -1.8 13.3 -7.4 17.3 -8.6 8 -2.4 27.1 -2.9 31.7 -0.8 0.3 0.1 1 0.3 1.5 0.4 3.3 0.6 15.1 6.1 17.1 8 12.1 10.8 16.4 16 16.4 20 0 0.8 0.7 1.5 1.5 1.5 0.8 0 1.5 -0.4 1.5 -1 0 -0.5 0.7 -1 1.5 -1 0.8 0 1.5 0.5 1.5 1.2 0 1.2 10.3 30.4 12.6 35.5 0.8 1.7 1.4 3.7 1.4 4.5 0.1 0.7 0.9 3.1 2 5.3 1.1 2.2 1.9 4.8 2 5.7 0 0.9 0.5 2 1 2.3 1.3 0.8 1.3 5.2 0.1 6 -0.5 0.3 -1.2 -0.3 -1.5 -1.2 -0.3 -1 -0.3 -0.1 0 1.9 0.3 2 1.1 5 1.9 6.5 0.8 1.5 1.5 3.3 1.5 4 0 0.6 0.5 2.4 1.2 4 0.6 1.5 1 3.3 0.9 4 -0.1 0.6 0.3 1.4 0.9 1.8 0.5 0.3 1 1.5 1 2.6 0 1 0.4 1.9 0.8 1.9 0.4 0 1.6 3.3 2.6 7.4 2.5 9.9 1.8 15.6 -3.1 24.5 -3.4 6.1 -11.4 16.1 -12.9 16.1 -0.3 0 -2 1.1 -3.8 2.5 -1.8 1.4 -3.6 2.5 -4 2.5 -0.5 0 -2 0.8 -3.4 1.8 -4.3 3 -14.9 5.1 -38.5 7.7 -12.2 1.3 -24.9 2.7 -28.2 3 -3.3 0.4 -8 0.9 -10.5 1 -2.5 0.2 -7 0.7 -10 1 -3 0.4 -7.3 0.8 -9.5 1 -9.3 0.7 -19 1.7 -19.6 2.1 -0.4 0.2 -3.8 0.6 -7.5 0.9 -9 0.6 -15.8 1.3 -21.3 2 -2.5 0.3 -7.2 0.8 -10.5 1.1 -3.4 0.2 -7.7 0.6 -9.6 0.8 -1.9 0.3 -6.1 0.7 -9.2 1 -13.3 1.3 -17.4 1.8 -19.8 2.1 -1.4 0.2 -5.4 0.6 -9 0.9 -3.6 0.3 -8.1 0.8 -10 1 -1.9 0.3 -6.2 0.7 -9.5 1.1 -3.3 0.3 -10.3 1 -15.5 1.6 -5.3 0.5 -12.7 1.2 -16.4 1.4 -3.8 0.2 -7.6 0.7 -8.5 0.9 -1.4 0.4 -6.6 1 -20.1 2.1 -1.9 0.2 -3.5 0.4 -3.5 0.5 0 0.1 -2.5 0.3 -5.5 0.6 -9.3 0.8 -13.5 1.2 -13.5 1.4 0 0.8 -17.7 0.5 -20 -0.4z"/>
 </g>
 <g fill="#1f9530">
  <path d="M433.5 204.5 c-3.8 -0.7 -9 -1.8 -11.5 -2.5 -5.6 -1.7 -5.7 -1.7 -7.2 -1.9 -0.6 0 -0.9 -0.4 -0.5 -0.7 0.3 -0.3 -0.3 -2.3 -1.4 -4.2 -1 -2 -1.9 -4.4 -1.9 -5.2 0 -0.8 -0.6 -2.7 -1.4 -4.1 -0.7 -1.4 -1.6 -3.8 -2 -5.5 -0.4 -1.6 -1.2 -3.2 -1.8 -3.5 -0.6 -0.4 -1.2 -1.9 -1.4 -3.4 -0.2 -1.5 -1.1 -3.6 -2 -4.6 -0.9 -1 -1.7 -3.2 -1.6 -4.9 0 -1.6 -0.2 -3 -0.6 -3 -1 0 -3.3 -5.4 -3.5 -8.2 0 -1.3 -0.5 -2.5 -0.9 -2.8 -0.6 -0.5 -7.2 -18 -9.8 -26.1 -0.8 -2.7 0 -4.8 2.9 -7.8 0.9 -1 3 -3.4 4.6 -5.5 5.1 -6.4 8.9 -10.9 10.8 -12.8 0.9 -1 1.7 -2.1 1.7 -2.4 0 -0.3 1.5 -2 3.3 -3.9 1.7 -1.8 5 -5.4 7.2 -8 2.2 -2.7 6.1 -7 8.8 -9.7 2.6 -2.8 4.7 -5.2 4.7 -5.4 0 -0.3 2.6 -3.1 5.8 -6.3 10 -10.2 16.2 -17.1 16.2 -18.1 0 -0.6 0.7 -1 1.5 -1 0.8 0 1.5 -0.3 1.5 -0.7 0 -0.5 1.8 -2.7 3.9 -5 l3.9 -4.3 4.2 2.3 c4.8 2.5 11 9.2 11 11.8 0 1 0.5 2.1 1 2.4 0.6 0.4 0.8 1 0.5 1.5 -0.3 0.5 -0.1 1.1 0.4 1.5 2 1.2 -0.8 21 -3.8 27.3 -4.1 8.7 -10.8 21.2 -12.5 23.3 -1.2 1.5 -2.9 3.9 -3.8 5.5 -1 1.6 -2.4 3.9 -3.3 5.1 -2.7 3.5 -0.1 3.4 3.9 -0.2 2.1 -1.9 4.6 -3.7 5.7 -4 1 -0.4 1.9 -1.2 1.9 -1.9 0 -0.8 1.5 -1.9 3.3 -2.7 1.7 -0.7 3.4 -1.6 3.7 -1.9 1.4 -1.8 12.5 -7.1 20 -9.5 11.4 -3.6 22.6 -3.7 33.5 -0.4 l7.7 2.4 -0.7 3.5 c-0.4 1.9 -0.8 4.2 -0.9 5 -0.1 0.8 -0.8 2.6 -1.6 4 -4.4 8.5 -7.5 13.6 -8.7 14.8 -0.7 0.7 -1.3 1.7 -1.3 2.1 0 1.2 -11.2 12.4 -15.1 15.1 -1.9 1.3 -3.7 2.9 -4.1 3.5 -0.4 0.5 -0.8 0.7 -0.8 0.3 0 -0.4 -2.3 1 -5.2 3.2 -2.8 2.1 -5.5 3.7 -5.9 3.4 -0.4 -0.2 -1 0 -1.4 0.6 -0.3 0.5 -1.3 1 -2.1 1 -0.9 0 -2.2 0.7 -3 1.5 -1.7 1.7 -0.9 4.1 0.9 2.7 1.7 -1.2 13.4 -0.5 18.1 1.2 5.2 1.8 12 7.4 13.6 11.1 0.8 1.7 1.6 3.2 1.9 3.5 1.3 1.1 4.1 10.9 3.5 12.3 -0.5 1.3 -11.2 7.7 -13.1 7.8 -0.5 0.1 -1.7 0.6 -2.8 1.2 -1.1 0.6 -2.2 1.2 -2.5 1.2 -0.3 0.1 -1.8 0.7 -3.5 1.4 -6.6 2.8 -11.2 4.2 -17 5.1 -3.3 0.5 -9.1 1.7 -13 2.5 -8.8 2 -28.8 2.5 -38 1z"/>
 </g>
</svg>