<svg class="svg-icon" style="width: 1em; height: 1em;vertical-align: middle;fill: currentColor;overflow: hidden;" viewBox="0 0 1024 1024" version="1.1" xmlns="http://www.w3.org/2000/svg"><path d="M603.2 386.3c-9.8-20.8-5.8-43.8-1.6-66.4 21-113.4 48.2-203.2 52.8-224.2 56.5-8.5 88 46.5 63.2 183.6 0 0 25.2-133.2 125.9-141.9 11.9-12.1 35.5 93.6-49.9 175.7-3.2 7.2 59.6-78.1 118.5-6.5 9.3 7.7-98.1 150.1-213.5 137.1-57.7-6.5-83.7-32.8-95.4-57.4z" fill="#2EAF5C" /><path d="M603.2 333.2l145.6 129.1c18.7 16.5 22.5 42.8 16.9 69.1-6.5 30.8-25.9 57.3-51.9 75.1L212.6 948.9c-8.9 6-19.6 8.9-30.2 7.3-16.3-2.4-32.2-11.7-42-27.5-11.4-18.4-10.5-41.9 0.4-60.7l287.7-497.2c25.5-44 75.4-69.5 125.5-60.7 17.8 3.1 34.9 10.4 49.2 23.1z" fill="#E86026" /></svg>