<?xml version="1.0" encoding="UTF-8" standalone="no"?>
<!DOCTYPE svg PUBLIC "-//W3C//DTD SVG 1.1//EN" "http://www.w3.org/Graphics/SVG/1.1/DTD/svg11.dtd">
<svg xmlns="http://www.w3.org/2000/svg" version="1.1" viewBox="0.00 0.00 512.00 512.00">
<path fill="#ffffff" d="
  M 247.85 0.00
  L 264.02 0.00
  Q 281.38 2.02 295.77 12.23
  Q 313.14 24.55 330.52 36.89
  Q 335.26 40.25 336.28 40.70
  Q 339.48 42.09 343.22 42.07
  Q 372.22 41.92 406.50 42.01
  C 418.06 42.03 429.20 40.66 434.64 53.35
  Q 436.13 56.82 436.07 67.58
  Q 435.97 86.06 435.93 103.80
  Q 435.92 107.49 436.05 110.83
  A 1.72 1.71 16.6 0 0 436.78 112.17
  Q 470.94 136.31 505.34 160.64
  Q 510.16 164.05 512.00 167.31
  L 512.00 491.75
  Q 511.03 497.89 506.37 503.12
  C 503.12 506.77 498.56 510.76 493.89 511.53
  Q 492.50 511.76 491.13 512.00
  L 20.25 512.00
  Q 18.82 511.70 17.39 511.34
  C 11.65 509.92 5.25 503.85 2.53 499.21
  Q 0.18 495.19 0.00 488.87
  L 0.00 167.24
  Q 1.53 164.39 4.37 162.37
  Q 39.83 137.20 74.83 112.44
  A 2.82 2.81 72.6 0 0 76.03 110.13
  Q 75.99 86.21 75.99 63.50
  Q 75.99 60.82 76.28 58.08
  C 76.99 51.15 81.67 45.13 88.07 43.17
  Q 92.40 41.85 99.20 41.89
  Q 137.17 42.11 167.15 41.92
  Q 169.84 41.90 172.89 41.72
  A 6.68 6.65 -64.3 0 0 176.38 40.49
  Q 195.82 26.72 215.59 12.62
  Q 230.23 2.18 247.85 0.00
  Z
  M 250.83 18.07
  Q 239.39 19.19 230.25 24.99
  C 222.68 29.80 215.41 35.52 208.00 40.54
  Q 205.89 41.97 208.44 41.97
  Q 239.41 41.92 269.75 41.93
  Q 284.47 41.93 300.50 41.97
  Q 302.72 41.97 304.61 41.74
  Q 305.36 41.65 304.75 41.21
  Q 294.21 33.49 284.28 26.64
  Q 269.24 16.27 250.83 18.07
  Z
  M 223.79 337.58
  C 243.54 353.15 269.19 353.20 288.49 337.24
  Q 357.28 280.35 416.57 230.82
  Q 417.89 229.72 418.00 228.00
  C 418.41 221.83 418.01 215.79 418.01 209.52
  Q 418.00 134.91 418.01 61.03
  A 1.04 1.03 0.0 0 0 416.97 60.00
  L 94.77 60.00
  A 0.78 0.78 0.0 0 0 93.99 60.78
  Q 94.10 145.63 93.88 224.50
  Q 93.88 226.79 94.28 229.15
  A 2.51 2.49 15.5 0 0 95.15 230.67
  Q 222.77 336.77 223.79 337.58
  Z
  M 440.73 210.94
  Q 464.08 191.29 487.10 172.32
  Q 488.40 171.25 487.03 170.28
  L 436.36 134.35
  Q 435.98 134.08 435.98 134.54
  L 436.00 212.78
  Q 436.00 214.70 437.65 213.72
  C 438.58 213.18 439.76 211.75 440.73 210.94
  Z
  M 29.26 176.00
  Q 49.10 192.20 68.67 208.73
  C 70.72 210.46 72.64 212.39 74.71 213.93
  A 0.80 0.80 0.0 0 0 75.99 213.29
  L 76.00 134.69
  A 0.43 0.43 0.0 0 0 75.29 134.36
  Q 73.71 135.70 71.95 136.96
  Q 48.72 153.54 24.88 170.33
  Q 23.46 171.33 24.81 172.41
  Q 27.13 174.26 29.26 176.00
  Z
  M 18.87 191.22
  A 0.53 0.53 0.0 0 0 18.00 191.62
  L 18.00 482.50
  A 0.53 0.53 0.0 0 0 18.87 482.90
  L 193.90 337.47
  A 0.53 0.53 0.0 0 0 193.90 336.65
  L 18.87 191.22
  Z
  M 492.92 482.71
  A 0.66 0.66 0.0 0 0 494.00 482.20
  L 494.00 191.92
  A 0.66 0.66 0.0 0 0 492.92 191.41
  L 318.21 336.55
  A 0.66 0.66 0.0 0 0 318.21 337.57
  L 492.92 482.71
  Z
  M 302.43 349.60
  C 287.68 362.45 271.34 367.99 252.49 367.17
  Q 228.31 366.11 209.83 349.64
  Q 208.98 348.88 208.09 349.62
  L 35.89 492.70
  Q 34.34 493.99 36.36 493.99
  Q 249.26 494.01 462.24 494.00
  C 467.06 494.00 471.80 494.35 476.56 493.75
  Q 477.52 493.62 476.75 493.04
  Q 475.03 491.75 473.43 490.43
  Q 391.42 422.40 306.94 352.09
  Q 305.57 350.95 304.20 349.64
  A 1.31 1.31 0.0 0 0 302.43 349.60
  Z"
/>
<path fill="#ffffff" d="
  M 273.04 232.41
  C 270.52 234.23 268.23 236.34 265.63 237.98
  Q 251.19 247.07 235.17 246.21
  Q 210.69 244.89 200.98 223.26
  C 194.45 208.70 196.39 191.12 202.96 176.64
  C 209.78 161.64 219.04 149.72 233.19 141.32
  C 243.29 135.33 254.47 134.47 265.73 137.21
  Q 276.49 139.83 284.82 149.45
  Q 285.48 150.21 286.28 149.62
  Q 286.72 149.29 286.84 148.12
  C 287.31 143.38 288.19 139.37 292.95 137.54
  Q 296.72 136.08 300.35 137.67
  C 307.05 140.61 305.15 148.91 304.11 154.66
  Q 298.61 185.14 290.14 219.85
  Q 288.56 226.31 295.05 227.65
  C 300.35 228.74 306.75 227.17 311.34 224.76
  Q 316.16 222.21 320.31 216.76
  C 330.80 202.99 335.34 187.24 333.49 169.91
  Q 331.54 151.60 319.29 135.52
  C 309.80 123.07 293.92 114.42 278.76 112.13
  Q 254.90 108.53 232.55 116.86
  C 209.19 125.57 189.07 145.09 177.86 166.32
  C 171.25 178.85 167.95 193.81 170.03 207.88
  C 174.40 237.42 193.52 258.61 222.70 266.43
  Q 253.00 274.56 282.97 271.44
  C 305.67 269.09 329.19 258.61 343.13 240.64
  C 345.49 237.60 350.21 237.14 353.43 238.69
  C 357.18 240.50 360.70 245.44 358.63 249.73
  Q 357.18 252.71 354.94 255.30
  C 335.99 277.14 307.34 288.39 279.03 290.02
  C 257.64 291.25 236.42 289.29 215.74 283.49
  C 186.83 275.38 164.59 255.08 155.51 226.51
  C 142.61 185.92 160.67 146.69 192.31 119.91
  Q 201.07 112.49 208.36 108.26
  Q 240.99 89.35 277.56 93.63
  Q 312.63 97.74 334.13 124.65
  C 347.50 141.39 353.51 163.18 351.84 184.58
  Q 349.93 209.15 334.35 228.57
  Q 319.71 246.83 297.19 246.18
  C 287.52 245.90 277.91 241.46 273.80 232.61
  Q 273.54 232.04 273.04 232.41
  Z
  M 280.18 181.19
  C 281.28 174.86 274.09 164.67 269.98 160.37
  C 261.99 152.00 250.34 152.02 240.89 158.13
  C 228.17 166.37 219.65 180.13 216.26 194.69
  Q 214.76 201.11 215.24 205.81
  Q 215.87 211.85 218.66 217.73
  Q 221.66 224.06 228.67 226.53
  C 240.76 230.80 253.95 225.83 262.39 217.04
  Q 266.69 212.55 271.06 207.01
  Q 275.02 202.00 276.13 198.73
  Q 278.19 192.71 280.18 181.19
  Z"
/>
</svg>
