<?xml version="1.0" encoding="UTF-8" standalone="no"?>
<!DOCTYPE svg PUBLIC "-//W3C//DTD SVG 1.1//EN" "http://www.w3.org/Graphics/SVG/1.1/DTD/svg11.dtd">
<svg xmlns="http://www.w3.org/2000/svg" version="1.1" viewBox="0.00 0.00 512.00 512.00">
<path fill="#334155" d="
  M 248.34 0.00
  L 262.78 0.00
  Q 281.09 1.64 296.27 12.49
  Q 315.84 26.48 335.63 40.35
  Q 337.95 41.98 340.50 41.99
  Q 374.22 42.08 409.16 41.93
  Q 419.65 41.88 423.26 42.99
  Q 431.54 45.55 434.46 53.08
  Q 436.23 57.67 436.12 68.74
  Q 435.92 88.66 435.93 108.49
  Q 435.93 110.02 436.40 111.51
  Q 436.55 111.99 436.96 112.28
  Q 471.30 136.57 505.64 160.86
  Q 510.08 164.00 512.00 167.08
  L 512.00 491.25
  Q 511.47 496.25 508.73 500.22
  C 505.62 504.72 499.51 510.55 493.96 511.50
  Q 492.41 511.76 490.88 512.00
  L 20.74 512.00
  Q 14.36 511.21 8.45 506.06
  Q 0.03 498.72 0.00 488.39
  L 0.00 167.18
  Q 2.46 163.64 9.16 158.91
  Q 41.51 136.08 74.99 112.28
  A 2.44 2.43 -16.9 0 0 76.01 110.38
  Q 76.17 105.94 76.11 100.75
  Q 75.87 79.07 76.18 60.85
  C 76.39 48.16 84.67 41.99 96.61 41.99
  Q 133.99 42.00 170.17 42.02
  Q 173.44 42.02 176.21 40.56
  Q 176.68 40.31 181.69 36.74
  Q 199.63 23.97 217.39 11.39
  Q 230.78 1.90 248.34 0.00
  Z
  M 285.35 27.35
  C 279.34 23.07 272.20 19.74 264.98 18.59
  Q 244.01 15.23 227.48 26.78
  Q 217.47 33.77 207.89 40.74
  Q 206.24 41.94 208.28 41.96
  C 214.53 42.03 220.90 41.83 227.25 41.85
  Q 262.44 41.99 302.75 41.83
  Q 303.46 41.83 304.18 41.82
  Q 305.60 41.81 304.45 40.98
  Q 294.79 34.08 285.35 27.35
  Z
  M 221.19 335.47
  C 234.82 346.82 250.16 352.00 268.02 347.78
  C 275.32 346.06 283.18 341.77 288.98 336.96
  Q 351.91 284.70 416.71 230.81
  A 3.74 3.72 -19.9 0 0 418.06 227.94
  L 417.97 60.74
  A 0.74 0.73 -90.0 0 0 417.24 60.00
  L 94.50 60.00
  A 0.50 0.49 -90.0 0 0 94.01 60.50
  L 93.98 227.77
  A 4.24 4.23 -70.2 0 0 95.51 231.03
  Q 158.08 282.91 221.19 335.47
  Z
  M 75.04 214.04
  A 0.22 0.21 -43.9 0 0 75.33 214.04
  Q 76.03 213.46 76.02 212.59
  Q 75.97 173.49 76.00 134.97
  Q 76.00 133.77 75.11 134.58
  Q 74.12 135.47 72.95 136.30
  Q 49.02 153.27 25.01 170.28
  Q 23.69 171.21 24.93 172.25
  L 75.04 214.04
  Z
  M 439.79 136.89
  Q 437.96 135.60 436.52 134.26
  A 0.32 0.31 21.4 0 0 435.99 134.49
  L 436.00 212.78
  Q 436.00 214.87 437.60 213.53
  L 487.07 172.24
  Q 488.31 171.20 486.99 170.26
  Q 463.73 153.67 439.79 136.89
  Z
  M 19.11 191.40
  A 0.68 0.68 0.0 0 0 18.00 191.92
  L 18.00 482.20
  A 0.68 0.68 0.0 0 0 19.11 482.72
  L 193.78 337.58
  A 0.68 0.68 0.0 0 0 193.78 336.54
  L 19.11 191.40
  Z
  M 492.91 482.73
  A 0.66 0.66 0.0 0 0 494.00 482.22
  L 494.00 191.94
  A 0.66 0.66 0.0 0 0 492.91 191.43
  L 318.22 336.57
  A 0.66 0.66 0.0 0 0 318.22 337.59
  L 492.91 482.73
  Z
  M 249.01 366.94
  C 234.28 365.70 220.54 359.49 209.78 349.68
  A 1.28 1.28 0.0 0 0 208.10 349.64
  Q 148.98 398.73 90.38 447.37
  Q 64.90 468.51 39.46 489.70
  Q 37.40 491.41 35.26 493.05
  A 0.41 0.40 31.2 0 0 35.44 493.77
  Q 36.57 493.98 37.67 493.98
  Q 254.98 494.09 473.91 494.00
  Q 475.05 494.00 476.17 493.84
  Q 477.72 493.63 476.42 492.76
  Q 473.81 491.02 471.21 488.79
  Q 467.78 485.84 467.78 485.74
  Q 467.79 485.66 303.85 349.57
  A 1.15 1.15 0.0 0 0 302.34 349.60
  Q 280.14 369.55 249.01 366.94
  Z"
/>
<path fill="#334155" d="
  M 273.65 232.45
  A 0.32 0.32 0.0 0 0 273.16 232.34
  Q 270.61 234.43 267.90 236.39
  Q 253.66 246.62 236.67 246.21
  Q 211.40 245.61 201.20 223.76
  C 195.38 211.30 196.06 195.64 200.55 182.79
  Q 203.64 173.94 209.43 164.47
  Q 216.73 152.55 229.92 143.38
  Q 244.71 133.12 263.20 136.66
  Q 276.20 139.16 284.83 149.49
  A 0.93 0.93 0.0 0 0 286.35 149.37
  Q 286.97 148.31 286.99 147.08
  C 287.12 139.17 294.40 134.11 301.58 138.31
  C 305.69 140.72 305.46 146.37 304.75 150.49
  Q 299.33 182.23 290.09 219.85
  Q 288.67 225.63 294.03 227.35
  C 299.31 229.05 306.37 227.27 311.16 224.83
  Q 316.35 222.19 321.01 215.86
  C 336.28 195.10 338.08 169.24 326.26 146.37
  Q 314.66 123.92 290.55 115.16
  Q 281.67 111.94 271.46 111.29
  Q 233.17 108.86 203.89 134.15
  Q 188.76 147.22 179.57 163.12
  Q 170.95 178.06 169.46 195.25
  Q 169.13 199.14 169.54 202.72
  C 169.90 205.93 170.01 209.19 170.70 212.33
  Q 177.97 245.56 207.16 260.61
  Q 214.76 264.53 225.83 267.28
  Q 255.50 274.66 284.29 271.32
  C 303.11 269.14 321.55 261.52 335.99 248.54
  Q 339.54 245.35 342.22 241.67
  C 349.27 232.01 364.09 242.55 357.53 251.75
  Q 351.83 259.74 343.80 266.06
  Q 320.04 284.77 290.85 288.66
  Q 251.89 293.85 214.75 283.22
  C 187.82 275.51 166.16 256.36 156.74 229.97
  Q 143.47 192.79 162.50 156.45
  C 170.93 140.36 182.72 127.47 197.02 116.09
  C 220.01 97.79 250.14 90.09 278.67 93.79
  Q 311.95 98.11 332.48 122.71
  Q 351.93 146.02 352.08 177.82
  Q 352.19 203.52 336.99 225.13
  C 326.96 239.38 313.25 247.19 295.49 246.00
  C 286.23 245.39 277.50 240.79 273.65 232.45
  Z
  M 240.81 158.19
  C 226.82 167.55 217.93 182.75 215.40 199.41
  Q 214.27 206.85 217.85 215.96
  Q 220.88 223.67 228.32 226.40
  C 240.15 230.75 253.29 226.18 261.69 217.77
  Q 268.42 211.02 274.69 201.93
  C 275.47 200.82 276.04 199.47 276.40 198.18
  Q 278.45 190.86 280.09 181.94
  Q 280.57 179.31 279.83 176.84
  Q 277.50 169.09 271.07 161.56
  C 263.09 152.22 250.67 151.60 240.81 158.19
  Z"
/>
</svg>
