<?xml version="1.0" encoding="UTF-8" standalone="no"?>
<!DOCTYPE svg PUBLIC "-//W3C//DTD SVG 1.1//EN" "http://www.w3.org/Graphics/SVG/1.1/DTD/svg11.dtd">
<svg xmlns="http://www.w3.org/2000/svg" version="1.1" viewBox="0.00 0.00 512.00 512.00">
<path fill="#ffffff" d="
  M 247.85 0.00
  L 264.02 0.00
  Q 281.38 2.02 295.77 12.23
  Q 313.14 24.55 330.52 36.89
  Q 335.26 40.25 336.28 40.70
  Q 339.49 42.10 343.22 42.08
  Q 372.37 41.91 406.50 42.02
  C 418.10 42.06 429.06 40.57 434.63 53.35
  Q 436.12 56.78 436.07 67.44
  Q 435.97 85.89 435.88 103.78
  Q 435.86 107.50 436.05 110.84
  A 1.78 1.76 -74.1 0 0 436.79 112.18
  Q 470.94 136.31 505.34 160.64
  Q 510.16 164.05 512.00 167.31
  L 512.00 491.75
  Q 511.03 497.89 506.37 503.12
  C 503.12 506.77 498.56 510.76 493.89 511.53
  Q 492.50 511.76 491.13 512.00
  L 20.25 512.00
  Q 18.82 511.70 17.39 511.34
  C 11.65 509.92 5.25 503.85 2.53 499.21
  Q 0.18 495.19 0.00 488.87
  L 0.00 167.24
  Q 1.53 164.39 4.37 162.37
  Q 39.83 137.20 74.83 112.44
  A 2.85 2.81 72.7 0 0 76.03 110.12
  Q 75.99 86.21 75.99 63.50
  Q 75.99 60.82 76.28 58.08
  C 76.99 51.11 81.72 45.07 88.16 43.14
  Q 92.39 41.88 99.33 41.92
  Q 137.50 42.13 167.15 41.92
  Q 169.75 41.90 172.88 41.72
  A 6.70 6.67 25.5 0 0 176.38 40.49
  Q 195.82 26.72 215.59 12.62
  Q 230.23 2.18 247.85 0.00
  Z
  M 250.98 18.05
  Q 238.09 19.23 227.15 26.98
  Q 217.10 34.10 207.80 40.73
  Q 206.15 41.91 208.18 41.94
  C 214.39 42.02 220.42 41.85 226.49 41.88
  Q 260.54 42.06 301.48 41.89
  Q 303.04 41.89 304.60 41.75
  Q 305.34 41.68 304.74 41.24
  Q 293.59 32.96 283.27 26.01
  Q 269.00 16.41 250.98 18.05
  Z
  M 249.68 348.84
  Q 271.73 351.25 289.04 336.88
  Q 355.58 281.62 416.50 230.99
  Q 417.88 229.84 418.00 228.00
  C 418.40 221.89 418.01 215.92 418.01 209.73
  Q 417.99 134.85 418.02 61.06
  A 1.06 1.06 0.0 0 0 416.96 60.00
  L 94.94 60.00
  A 0.96 0.96 0.0 0 0 93.98 60.96
  Q 94.06 150.43 93.92 224.64
  Q 93.92 226.85 94.23 228.95
  A 3.10 3.06 15.9 0 0 95.32 230.88
  Q 155.40 280.68 213.96 329.46
  Q 223.58 337.47 225.05 338.52
  C 232.56 343.90 240.70 347.86 249.68 348.84
  Z
  M 436.54 134.46
  A 0.34 0.34 0.0 0 0 436.00 134.74
  L 436.00 214.10
  A 0.34 0.34 0.0 0 0 436.56 214.36
  L 487.95 171.50
  A 0.34 0.34 0.0 0 0 487.93 170.96
  L 436.54 134.46
  Z
  M 75.45 214.37
  A 0.33 0.33 0.0 0 0 75.99 214.11
  L 76.00 134.76
  A 0.33 0.33 0.0 0 0 75.48 134.49
  L 24.08 170.95
  A 0.33 0.33 0.0 0 0 24.06 171.47
  L 75.45 214.37
  Z
  M 18.87 191.22
  A 0.53 0.53 0.0 0 0 18.00 191.62
  L 18.00 482.50
  A 0.53 0.53 0.0 0 0 18.87 482.90
  L 193.90 337.47
  A 0.53 0.53 0.0 0 0 193.90 336.65
  L 18.87 191.22
  Z
  M 492.92 482.72
  A 0.66 0.66 0.0 0 0 494.00 482.21
  L 494.00 191.93
  A 0.66 0.66 0.0 0 0 492.92 191.42
  L 318.21 336.56
  A 0.66 0.66 0.0 0 0 318.21 337.58
  L 492.92 482.72
  Z
  M 302.44 349.59
  C 287.65 362.46 271.32 367.96 252.45 367.22
  Q 228.50 366.29 209.83 349.64
  Q 208.98 348.88 208.10 349.61
  L 35.92 492.68
  Q 34.34 493.99 36.36 493.99
  Q 249.26 494.01 462.23 493.99
  C 467.05 493.99 471.79 494.35 476.56 493.75
  Q 477.53 493.62 476.75 493.04
  Q 475.03 491.76 473.44 490.44
  Q 390.13 421.34 306.93 352.07
  Q 305.53 350.91 304.20 349.63
  A 1.31 1.31 0.0 0 0 302.44 349.59
  Z"
/>
<path fill="#f5530f" d="
  M 344.29 235.01
  C 330.89 262.08 304.26 283.32 273.83 287.55
  Q 261.43 289.28 244.49 288.23
  C 226.43 287.12 208.09 279.11 194.39 267.81
  Q 166.88 245.11 160.16 210.78
  C 154.73 183.02 160.87 154.00 178.32 131.28
  C 192.64 112.62 214.05 98.98 237.50 95.02
  C 281.31 87.63 322.70 106.36 343.43 146.11
  C 349.47 157.68 352.67 169.52 353.46 182.78
  Q 354.34 197.63 352.31 210.74
  Q 350.50 222.45 344.29 235.01
  Z
  M 335.44 191.36
  A 79.37 79.37 0.0 0 0 256.07 111.99
  A 79.37 79.37 0.0 0 0 176.70 191.36
  A 79.37 79.37 0.0 0 0 256.07 270.73
  A 79.37 79.37 0.0 0 0 335.44 191.36
  Z"
/>
<path fill="#f5530f" d="
  M 235.95 210.02
  Q 236.60 210.71 237.27 210.05
  Q 258.43 189.22 282.51 164.76
  Q 286.52 160.69 290.62 157.08
  Q 294.58 153.59 300.77 154.07
  Q 306.50 154.52 309.06 159.29
  Q 313.63 167.84 306.50 175.05
  C 287.07 194.71 268.16 213.48 248.46 233.21
  Q 246.41 235.26 243.75 237.36
  C 236.75 242.85 229.33 237.82 224.20 232.70
  Q 212.59 221.10 200.00 208.55
  C 196.04 204.60 196.02 200.10 196.36 194.89
  C 196.86 187.34 205.17 184.47 211.17 187.09
  Q 214.45 188.51 217.62 191.51
  Q 227.41 200.73 235.95 210.02
  Z"
/>
</svg>
