<?xml version="1.0" encoding="UTF-8" standalone="no"?>
<!DOCTYPE svg PUBLIC "-//W3C//DTD SVG 1.1//EN" "http://www.w3.org/Graphics/SVG/1.1/DTD/svg11.dtd">
<svg xmlns="http://www.w3.org/2000/svg" version="1.1" viewBox="0.00 0.00 512.00 512.00">
<path fill="#ffffff" d="
  M 247.85 0.00
  L 264.02 0.00
  Q 281.38 2.02 295.77 12.23
  Q 313.14 24.55 330.52 36.89
  Q 335.26 40.25 336.28 40.70
  Q 339.28 42.00 343.24 42.01
  Q 374.59 42.05 406.50 41.99
  C 418.22 41.97 428.99 40.69 434.62 53.31
  Q 436.14 56.71 436.07 67.08
  Q 435.96 86.01 435.92 103.82
  Q 435.91 107.46 436.05 110.83
  A 1.75 1.74 -73.8 0 0 436.78 112.17
  Q 470.94 136.31 505.34 160.64
  Q 510.16 164.05 512.00 167.31
  L 512.00 491.75
  Q 511.03 497.89 506.37 503.12
  C 503.12 506.77 498.56 510.76 493.89 511.53
  Q 492.50 511.76 491.13 512.00
  L 20.25 512.00
  Q 18.82 511.70 17.39 511.34
  C 11.65 509.92 5.25 503.85 2.53 499.21
  Q 0.18 495.19 0.00 488.87
  L 0.00 167.24
  Q 1.53 164.39 4.37 162.37
  Q 39.83 137.20 74.83 112.44
  A 2.85 2.81 72.7 0 0 76.03 110.12
  Q 75.99 86.21 75.99 63.50
  Q 75.99 60.82 76.28 58.08
  C 76.99 51.10 81.73 45.07 88.17 43.14
  Q 92.46 41.85 99.27 41.90
  Q 137.34 42.13 167.16 41.92
  Q 169.85 41.90 172.89 41.72
  A 6.68 6.65 -64.3 0 0 176.38 40.49
  Q 195.82 26.72 215.59 12.62
  Q 230.23 2.18 247.85 0.00
  Z
  M 250.85 18.05
  Q 239.64 19.11 230.34 24.96
  C 222.70 29.76 215.50 35.45 208.00 40.55
  Q 205.90 41.97 208.44 41.97
  Q 239.40 41.92 269.75 41.93
  Q 284.46 41.93 300.50 41.97
  Q 302.72 41.97 304.61 41.74
  Q 305.36 41.65 304.75 41.21
  Q 294.19 33.48 284.23 26.61
  Q 269.31 16.32 250.85 18.05
  Z
  M 223.48 337.31
  C 242.64 353.22 269.22 353.18 288.50 337.24
  Q 350.46 285.98 416.57 230.82
  Q 417.89 229.72 418.00 228.00
  C 418.41 221.80 418.01 215.73 418.01 209.44
  Q 418.00 134.95 418.00 61.03
  A 1.03 1.03 0.0 0 0 416.97 60.00
  L 94.79 60.00
  A 0.82 0.82 0.0 0 0 93.97 60.82
  Q 94.11 150.22 93.89 224.58
  Q 93.89 226.90 94.26 229.07
  A 2.89 2.85 15.2 0 0 95.26 230.79
  Q 175.09 297.11 223.48 337.31
  Z
  M 440.73 210.94
  Q 464.08 191.29 487.10 172.32
  Q 488.40 171.25 487.03 170.28
  L 436.36 134.35
  Q 435.98 134.08 435.98 134.54
  L 436.00 212.78
  Q 436.00 214.70 437.65 213.72
  C 438.58 213.18 439.76 211.75 440.73 210.94
  Z
  M 29.26 176.00
  Q 49.25 192.37 68.67 208.73
  C 70.72 210.46 72.62 212.38 74.71 213.93
  A 0.80 0.80 0.0 0 0 75.99 213.29
  L 76.00 134.69
  A 0.43 0.43 0.0 0 0 75.29 134.36
  Q 73.71 135.70 71.95 136.96
  Q 48.72 153.54 24.88 170.33
  Q 23.46 171.33 24.81 172.41
  Q 27.15 174.28 29.26 176.00
  Z
  M 18.87 191.22
  A 0.53 0.53 0.0 0 0 18.00 191.62
  L 18.00 482.50
  A 0.53 0.53 0.0 0 0 18.87 482.90
  L 193.90 337.47
  A 0.53 0.53 0.0 0 0 193.90 336.65
  L 18.87 191.22
  Z
  M 492.92 482.71
  A 0.66 0.66 0.0 0 0 494.00 482.20
  L 494.00 191.92
  A 0.66 0.66 0.0 0 0 492.92 191.41
  L 318.21 336.55
  A 0.66 0.66 0.0 0 0 318.21 337.57
  L 492.92 482.71
  Z
  M 302.44 349.59
  C 287.58 362.52 271.38 367.91 252.46 367.21
  Q 228.55 366.33 209.83 349.64
  Q 208.98 348.88 208.10 349.61
  L 35.92 492.68
  Q 34.34 493.99 36.36 493.99
  Q 249.26 494.01 462.24 494.00
  C 467.05 494.00 471.80 494.35 476.56 493.74
  Q 477.52 493.62 476.75 493.04
  Q 475.01 491.74 473.41 490.41
  Q 390.13 421.32 306.93 352.08
  Q 305.56 350.94 304.20 349.64
  A 1.31 1.30 46.5 0 0 302.44 349.59
  Z"
/>
<path fill="#f5530f" d="
  M 273.01 232.46
  C 270.31 234.45 267.75 236.69 264.90 238.44
  Q 251.73 246.51 236.69 246.22
  C 200.79 245.54 190.15 209.56 201.20 180.90
  C 207.61 164.25 217.94 150.26 233.71 141.08
  Q 240.96 136.86 248.96 136.02
  C 262.67 134.59 276.11 138.69 284.83 149.56
  A 0.96 0.95 36.0 0 0 286.47 149.30
  Q 286.97 147.96 287.05 146.49
  Q 287.43 139.92 292.63 137.70
  C 298.44 135.21 305.17 138.45 305.15 145.25
  Q 305.14 148.30 304.36 152.73
  Q 298.58 185.71 290.29 218.91
  Q 288.21 227.24 296.59 227.87
  Q 304.50 228.46 311.85 224.49
  Q 317.13 221.64 322.19 214.24
  Q 337.74 191.51 332.82 165.17
  Q 331.23 156.66 327.83 149.48
  C 323.92 141.22 318.22 132.78 311.12 126.95
  Q 293.53 112.49 271.12 111.23
  Q 238.84 109.41 213.42 126.84
  C 191.91 141.59 173.36 165.05 169.99 190.95
  Q 169.10 197.78 169.60 204.09
  Q 170.83 219.69 178.41 233.17
  Q 192.48 258.21 222.29 266.34
  C 262.17 277.21 314.92 276.17 343.05 240.79
  C 347.42 235.30 355.59 237.95 358.33 243.62
  Q 360.59 248.29 356.70 253.01
  Q 352.74 257.80 349.71 260.73
  C 333.05 276.80 310.31 286.82 286.61 289.27
  Q 250.92 292.96 217.21 283.87
  C 188.84 276.23 166.37 257.36 156.46 229.22
  C 140.67 184.34 163.16 140.97 199.85 113.96
  Q 221.38 98.11 248.53 94.09
  C 282.60 89.04 315.69 99.10 336.21 127.56
  Q 353.61 151.69 351.92 182.91
  Q 350.55 208.13 334.26 228.63
  Q 319.05 247.78 294.96 245.94
  Q 282.92 245.03 275.54 235.86
  C 274.84 234.99 274.32 233.83 273.97 232.77
  Q 273.71 231.94 273.01 232.46
  Z
  M 225.01 224.78
  C 233.55 229.60 242.55 229.00 251.52 224.86
  C 260.15 220.87 266.15 213.27 272.01 205.82
  Q 275.97 200.78 277.22 195.39
  Q 278.70 189.00 279.93 183.02
  C 280.47 180.41 280.31 177.77 279.37 175.28
  Q 276.55 167.71 270.53 160.96
  C 262.45 151.91 250.36 151.83 240.58 158.33
  C 228.09 166.63 219.88 179.80 216.40 194.09
  Q 214.74 200.93 215.33 206.20
  C 216.08 212.83 218.81 221.28 225.01 224.78
  Z"
/>
</svg>
