<?xml version="1.0" encoding="UTF-8" standalone="no"?>
<!DOCTYPE svg PUBLIC "-//W3C//DTD SVG 1.1//EN" "http://www.w3.org/Graphics/SVG/1.1/DTD/svg11.dtd">
<svg xmlns="http://www.w3.org/2000/svg" version="1.1" viewBox="0.00 0.00 512.00 512.00">
<g stroke-width="2.00" fill="none" stroke-linecap="butt">
<path stroke="#f5d765" vector-effect="non-scaling-stroke" d="
  M 337.41 44.15
  Q 256.45 44.07 176.00 44.13
  Q 175.57 44.13 175.19 43.66"
/>
<path stroke="#f5d765" vector-effect="non-scaling-stroke" d="
  M 432.72 111.53
  Q 432.51 111.88 432.51 112.25
  Q 432.54 172.09 432.52 231.93
  C 432.52 232.39 432.78 232.67 433.04 233.04"
/>
<path stroke="#f6c368" vector-effect="non-scaling-stroke" d="
  M 433.04 233.04
  L 304.84 339.84"
/>
<path stroke="#efb46b" vector-effect="non-scaling-stroke" d="
  M 304.84 339.84
  Q 300.47 343.38 295.87 347.05
  Q 290.70 351.17 286.34 353.71
  Q 272.98 361.48 257.05 361.73
  Q 234.65 362.08 216.91 347.57
  Q 211.85 343.43 207.21 339.85"
/>
<path stroke="#f6c368" vector-effect="non-scaling-stroke" d="
  M 207.21 339.85
  Q 120.40 267.82 80.07 234.18
  Q 79.49 233.70 79.21 232.72"
/>
<path stroke="#f5d765" vector-effect="non-scaling-stroke" d="
  M 79.21 232.72
  L 79.39 232.06
  Q 79.48 231.70 79.48 231.33
  L 79.24 111.57"
/>
<path stroke="#e39b7e" vector-effect="non-scaling-stroke" d="
  M 287.10 148.28
  C 275.85 132.59 252.68 127.58 235.68 136.48
  C 218.83 145.31 207.61 159.54 200.42 177.48
  C 190.95 201.08 194.62 232.31 221.54 242.73
  C 239.26 249.60 260.42 242.98 273.72 230.33
  Q 274.15 229.92 274.41 230.45
  Q 280.55 242.76 294.34 244.65
  Q 311.65 247.04 326.24 237.09
  C 331.44 233.54 335.67 228.65 339.35 223.50
  C 361.36 192.78 359.43 150.39 336.49 120.91
  C 324.04 104.91 306.02 93.53 285.91 89.82
  C 254.91 84.10 223.04 91.17 197.80 110.00
  C 165.35 134.22 142.18 172.29 149.79 213.61
  Q 155.32 243.58 177.28 263.50
  Q 189.88 274.94 204.07 280.25
  Q 232.98 291.05 268.05 291.18
  C 302.64 291.31 336.72 279.97 359.40 252.79
  C 367.39 243.22 354.01 231.67 345.53 241.87
  C 316.26 277.05 264.60 278.26 223.58 267.97
  Q 212.67 265.23 205.51 261.57
  C 176.84 246.95 161.36 216.11 167.11 184.40
  C 171.67 159.25 190.84 136.11 211.17 122.13
  Q 238.65 103.23 272.97 105.79
  Q 302.48 107.99 321.11 130.01
  C 340.36 152.78 342.89 188.06 325.48 212.58
  Q 319.32 221.26 313.35 224.29
  Q 304.73 228.66 295.65 226.96
  C 290.28 225.96 289.54 221.77 290.91 216.99
  Q 293.28 208.69 294.75 201.99
  Q 302.29 167.49 306.42 143.74
  C 308.12 133.92 295.52 129.15 290.36 137.33
  C 288.56 140.17 288.38 144.77 287.74 148.14
  Q 287.58 148.95 287.10 148.28"
/>
<path stroke="#e39b7e" vector-effect="non-scaling-stroke" d="
  M 216.96 183.66
  Q 213.21 192.93 213.36 202.39
  C 213.76 227.01 235.65 233.61 254.77 222.70
  C 262.34 218.38 269.35 209.58 274.63 202.31
  Q 277.32 198.60 278.09 195.17
  Q 279.87 187.20 281.80 177.93
  Q 282.18 176.12 281.43 174.17
  Q 277.02 162.68 270.86 156.48
  C 262.72 148.29 250.30 147.61 240.48 153.99
  C 229.16 161.35 222.05 171.06 216.96 183.66"
/>
<path stroke="#f1b01c" vector-effect="non-scaling-stroke" d="
  M 79.21 232.72
  Q 78.36 232.59 78.04 232.33
  Q 53.69 212.12 29.37 191.88
  Q 27.69 190.48 27.12 189.86
  Q 27.05 189.78 26.96 189.75
  Q 26.77 189.69 26.67 189.82
  Q 26.58 189.94 26.61 189.79
  Q 26.63 189.72 26.61 189.65
  Q 26.57 189.54 26.47 189.46
  Q 15.34 180.25 4.24 171.01
  Q 1.37 168.63 0.28 168.07"
/>
<path stroke="#f1b01c" vector-effect="non-scaling-stroke" d="
  M 511.75 168.39
  L 510.94 168.61
  Q 510.46 168.73 510.08 169.05
  L 433.04 233.04"
/>
<path stroke="#ec8d22" vector-effect="non-scaling-stroke" d="
  M 207.21 339.85
  L 5.74 507.26"
/>
<path stroke="#ec8d22" vector-effect="non-scaling-stroke" d="
  M 506.30 507.23
  L 304.84 339.84"
/>
</g>
<path fill="#f0c419" d="
  M 252.64 0.00
  L 259.50 0.00
  Q 278.37 1.45 293.26 12.53
  C 307.68 23.26 322.60 33.49 337.41 44.15
  Q 256.45 44.07 176.00 44.13
  Q 175.57 44.13 175.19 43.66
  Q 192.16 31.62 209.10 19.58
  Q 223.77 9.15 225.50 8.16
  Q 237.82 1.10 252.64 0.00
  Z"
/>
<path fill="#f9eab0" d="
  M 175.19 43.66
  Q 175.57 44.13 176.00 44.13
  Q 256.45 44.07 337.41 44.15
  Q 378.89 44.23 420.72 44.21
  Q 425.95 44.21 428.00 45.48
  C 431.55 47.68 432.49 50.74 432.50 54.93
  Q 432.53 82.84 432.62 110.75
  Q 432.62 111.12 432.72 111.53
  Q 432.51 111.88 432.51 112.25
  Q 432.54 172.09 432.52 231.93
  C 432.52 232.39 432.78 232.67 433.04 233.04
  L 304.84 339.84
  Q 300.47 343.38 295.87 347.05
  Q 290.70 351.17 286.34 353.71
  Q 272.98 361.48 257.05 361.73
  Q 234.65 362.08 216.91 347.57
  Q 211.85 343.43 207.21 339.85
  Q 120.40 267.82 80.07 234.18
  Q 79.49 233.70 79.21 232.72
  L 79.39 232.06
  Q 79.48 231.70 79.48 231.33
  L 79.24 111.57
  Q 79.24 111.38 79.33 111.22
  Q 79.46 110.96 79.46 110.67
  Q 79.56 84.20 79.45 55.44
  C 79.43 48.31 82.61 44.22 89.88 44.22
  Q 131.32 44.19 172.75 44.22
  Q 174.25 44.23 175.19 43.66
  Z
  M 287.10 148.28
  C 275.85 132.59 252.68 127.58 235.68 136.48
  C 218.83 145.31 207.61 159.54 200.42 177.48
  C 190.95 201.08 194.62 232.31 221.54 242.73
  C 239.26 249.60 260.42 242.98 273.72 230.33
  Q 274.15 229.92 274.41 230.45
  Q 280.55 242.76 294.34 244.65
  Q 311.65 247.04 326.24 237.09
  C 331.44 233.54 335.67 228.65 339.35 223.50
  C 361.36 192.78 359.43 150.39 336.49 120.91
  C 324.04 104.91 306.02 93.53 285.91 89.82
  C 254.91 84.10 223.04 91.17 197.80 110.00
  C 165.35 134.22 142.18 172.29 149.79 213.61
  Q 155.32 243.58 177.28 263.50
  Q 189.88 274.94 204.07 280.25
  Q 232.98 291.05 268.05 291.18
  C 302.64 291.31 336.72 279.97 359.40 252.79
  C 367.39 243.22 354.01 231.67 345.53 241.87
  C 316.26 277.05 264.60 278.26 223.58 267.97
  Q 212.67 265.23 205.51 261.57
  C 176.84 246.95 161.36 216.11 167.11 184.40
  C 171.67 159.25 190.84 136.11 211.17 122.13
  Q 238.65 103.23 272.97 105.79
  Q 302.48 107.99 321.11 130.01
  C 340.36 152.78 342.89 188.06 325.48 212.58
  Q 319.32 221.26 313.35 224.29
  Q 304.73 228.66 295.65 226.96
  C 290.28 225.96 289.54 221.77 290.91 216.99
  Q 293.28 208.69 294.75 201.99
  Q 302.29 167.49 306.42 143.74
  C 308.12 133.92 295.52 129.15 290.36 137.33
  C 288.56 140.17 288.38 144.77 287.74 148.14
  Q 287.58 148.95 287.10 148.28
  Z"
/>
<path fill="#cc4b4c" d="
  M 287.74 148.14
  C 288.38 144.77 288.56 140.17 290.36 137.33
  C 295.52 129.15 308.12 133.92 306.42 143.74
  Q 302.29 167.49 294.75 201.99
  Q 293.28 208.69 290.91 216.99
  C 289.54 221.77 290.28 225.96 295.65 226.96
  Q 304.73 228.66 313.35 224.29
  Q 319.32 221.26 325.48 212.58
  C 342.89 188.06 340.36 152.78 321.11 130.01
  Q 302.48 107.99 272.97 105.79
  Q 238.65 103.23 211.17 122.13
  C 190.84 136.11 171.67 159.25 167.11 184.40
  C 161.36 216.11 176.84 246.95 205.51 261.57
  Q 212.67 265.23 223.58 267.97
  C 264.60 278.26 316.26 277.05 345.53 241.87
  C 354.01 231.67 367.39 243.22 359.40 252.79
  C 336.72 279.97 302.64 291.31 268.05 291.18
  Q 232.98 291.05 204.07 280.25
  Q 189.88 274.94 177.28 263.50
  Q 155.32 243.58 149.79 213.61
  C 142.18 172.29 165.35 134.22 197.80 110.00
  C 223.04 91.17 254.91 84.10 285.91 89.82
  C 306.02 93.53 324.04 104.91 336.49 120.91
  C 359.43 150.39 361.36 192.78 339.35 223.50
  C 335.67 228.65 331.44 233.54 326.24 237.09
  Q 311.65 247.04 294.34 244.65
  Q 280.55 242.76 274.41 230.45
  Q 274.15 229.92 273.72 230.33
  C 260.42 242.98 239.26 249.60 221.54 242.73
  C 194.62 232.31 190.95 201.08 200.42 177.48
  C 207.61 159.54 218.83 145.31 235.68 136.48
  C 252.68 127.58 275.85 132.59 287.10 148.28
  Q 287.58 148.95 287.74 148.14
  Z
  M 216.96 183.66
  Q 213.21 192.93 213.36 202.39
  C 213.76 227.01 235.65 233.61 254.77 222.70
  C 262.34 218.38 269.35 209.58 274.63 202.31
  Q 277.32 198.60 278.09 195.17
  Q 279.87 187.20 281.80 177.93
  Q 282.18 176.12 281.43 174.17
  Q 277.02 162.68 270.86 156.48
  C 262.72 148.29 250.30 147.61 240.48 153.99
  C 229.16 161.35 222.05 171.06 216.96 183.66
  Z"
/>
<path fill="#f0c419" d="
  M 79.24 111.57
  L 79.48 231.33
  Q 79.48 231.70 79.39 232.06
  L 79.21 232.72
  Q 78.36 232.59 78.04 232.33
  Q 53.69 212.12 29.37 191.88
  Q 27.69 190.48 27.12 189.86
  Q 27.05 189.78 26.96 189.75
  Q 26.77 189.69 26.67 189.82
  Q 26.58 189.94 26.61 189.79
  Q 26.63 189.72 26.61 189.65
  Q 26.57 189.54 26.47 189.46
  Q 15.34 180.25 4.24 171.01
  Q 1.37 168.63 0.28 168.07
  Q 0.14 167.61 0.73 167.19
  Q 27.80 148.16 79.24 111.57
  Z"
/>
<path fill="#f0c419" d="
  M 432.72 111.53
  Q 472.15 139.48 511.57 167.43
  Q 511.89 167.66 511.75 168.39
  L 510.94 168.61
  Q 510.46 168.73 510.08 169.05
  L 433.04 233.04
  C 432.78 232.67 432.52 232.39 432.52 231.93
  Q 432.54 172.09 432.51 112.25
  Q 432.51 111.88 432.72 111.53
  Z"
/>
<path fill="#f9eab0" d="
  M 216.96 183.66
  C 222.05 171.06 229.16 161.35 240.48 153.99
  C 250.30 147.61 262.72 148.29 270.86 156.48
  Q 277.02 162.68 281.43 174.17
  Q 282.18 176.12 281.80 177.93
  Q 279.87 187.20 278.09 195.17
  Q 277.32 198.60 274.63 202.31
  C 269.35 209.58 262.34 218.38 254.77 222.70
  C 235.65 233.61 213.76 227.01 213.36 202.39
  Q 213.21 192.93 216.96 183.66
  Z"
/>
<path fill="#f29c1f" d="
  M 0.28 168.07
  Q 1.37 168.63 4.24 171.01
  Q 15.34 180.25 26.47 189.46
  Q 26.57 189.54 26.61 189.65
  Q 26.63 189.72 26.61 189.79
  Q 26.58 189.94 26.67 189.82
  Q 26.77 189.69 26.96 189.75
  Q 27.05 189.78 27.12 189.86
  Q 27.69 190.48 29.37 191.88
  Q 53.69 212.12 78.04 232.33
  Q 78.36 232.59 79.21 232.72
  Q 79.49 233.70 80.07 234.18
  Q 120.40 267.82 207.21 339.85
  L 5.74 507.26
  Q 1.02 502.74 0.00 496.12
  L 0.00 168.50
  Q 0.32 168.65 0.28 168.07
  Z"
/>
<path fill="#f29c1f" d="
  M 511.75 168.39
  Q 511.88 168.48 512.00 168.57
  L 512.00 496.24
  Q 510.88 502.82 506.30 507.23
  L 304.84 339.84
  L 433.04 233.04
  L 510.08 169.05
  Q 510.46 168.73 510.94 168.61
  L 511.75 168.39
  Z"
/>
<path fill="#e57e25" d="
  M 207.21 339.85
  Q 211.85 343.43 216.91 347.57
  Q 234.65 362.08 257.05 361.73
  Q 272.98 361.48 286.34 353.71
  Q 290.70 351.17 295.87 347.05
  Q 300.47 343.38 304.84 339.84
  L 506.30 507.23
  Q 502.87 510.68 497.62 512.00
  L 14.51 512.00
  Q 9.15 510.74 5.74 507.26
  L 207.21 339.85
  Z"
/>
</svg>
