<?xml version="1.0" encoding="UTF-8" standalone="no"?>
<!DOCTYPE svg PUBLIC "-//W3C//DTD SVG 1.1//EN" "http://www.w3.org/Graphics/SVG/1.1/DTD/svg11.dtd">
<svg xmlns="http://www.w3.org/2000/svg" version="1.1" viewBox="0.00 0.00 760.00 256.00">
<path fill="#f5530f" d="
  M 589.04 97.70
  L 589.31 97.83
  Q 589.51 97.92 589.60 98.13
  Q 590.81 101.05 592.36 103.56
  Q 593.00 104.58 593.10 105.72
  C 593.20 106.86 593.67 107.67 593.90 108.75
  Q 596.14 118.89 593.90 128.94
  Q 592.04 137.28 587.57 142.07
  Q 582.18 147.85 574.54 150.10
  C 571.48 151.00 568.32 151.86 565.16 151.95
  Q 552.19 152.34 539.32 152.49
  Q 538.05 152.50 538.05 151.23
  L 537.99 42.00
  Q 537.99 40.79 539.20 40.75
  Q 546.14 40.51 552.34 40.47
  Q 554.14 40.45 556.04 40.05
  Q 557.75 39.69 559.41 40.15
  Q 560.80 40.53 562.25 40.57
  Q 571.49 40.78 579.59 44.48
  C 580.57 44.93 581.22 45.89 582.20 46.05
  Q 582.73 46.14 583.12 46.52
  C 584.92 48.32 586.71 49.92 588.08 52.07
  Q 591.53 57.45 592.67 63.84
  Q 595.53 79.78 586.31 92.05
  A 2.23 2.23 0.0 0 0 586.74 95.16
  Q 587.70 95.90 588.31 97.00
  Q 588.57 97.47 589.04 97.70
  Z
  M 553.30 56.97
  L 553.20 86.25
  A 1.14 1.14 0.0 0 0 554.33 87.39
  L 563.77 87.42
  A 14.30 14.08 -89.8 0 0 577.90 73.17
  L 577.92 70.21
  A 14.30 14.08 -89.8 0 0 563.89 55.86
  L 554.45 55.83
  A 1.14 1.14 0.0 0 0 553.30 56.97
  Z
  M 564.62 136.52
  Q 566.81 136.12 568.81 135.89
  Q 569.26 135.84 569.61 135.56
  C 570.53 134.82 571.38 135.23 572.32 134.69
  C 577.27 131.80 578.06 128.31 579.06 123.30
  Q 579.56 120.79 579.33 118.16
  Q 579.09 115.48 578.81 112.93
  Q 578.39 109.03 575.30 105.45
  Q 573.07 102.86 570.29 102.92
  Q 562.75 103.07 554.05 102.95
  Q 553.39 102.94 553.39 103.60
  L 553.37 136.28
  Q 553.37 136.82 553.91 136.87
  Q 559.83 137.41 564.62 136.52
  Z"
/>
<path fill="#f5530f" d="
  M 642.93 112.00
  L 677.25 112.00
  Q 678.00 112.00 678.00 112.75
  L 678.00 127.50
  Q 678.00 128.00 677.50 128.00
  L 627.99 127.99
  A 1.00 1.00 0.0 0 1 626.99 126.99
  L 627.04 40.73
  A 0.73 0.73 0.0 0 1 627.77 40.00
  L 677.25 40.00
  A 0.75 0.75 0.0 0 1 678.00 40.75
  L 678.00 54.34
  A 0.59 0.59 0.0 0 1 677.41 54.93
  L 642.50 55.24
  Q 642.00 55.24 642.00 55.75
  L 642.00 76.79
  A 0.25 0.25 0.0 0 0 642.36 77.01
  L 647.48 74.38
  Q 647.89 74.16 648.35 74.13
  Q 648.90 74.09 649.43 73.88
  Q 656.86 71.01 665.63 71.86
  Q 666.11 71.90 666.12 72.38
  L 666.26 85.41
  Q 666.27 86.14 665.55 86.23
  Q 662.80 86.59 659.99 86.86
  Q 657.24 87.13 654.64 88.02
  Q 648.76 90.02 645.23 93.51
  Q 643.44 95.29 642.69 97.75
  Q 642.18 99.43 642.22 101.47
  Q 642.30 106.51 642.21 111.26
  Q 642.19 112.00 642.93 112.00
  Z"
/>
<path fill="#f5530f" d="
  M 720.81 118.39
  Q 719.25 114.36 713.83 109.18
  Q 704.76 100.51 697.80 93.44
  Q 693.60 89.17 690.98 85.13
  Q 687.96 80.47 687.13 74.46
  C 686.38 68.98 686.62 62.62 688.84 57.68
  Q 689.70 55.75 690.64 54.04
  Q 698.65 39.43 716.17 39.95
  C 717.71 40.00 718.60 40.75 720.01 40.91
  Q 720.81 41.00 721.65 41.29
  Q 732.55 45.01 737.61 55.19
  Q 737.88 55.74 737.42 56.14
  L 726.32 65.66
  Q 725.74 66.16 725.32 65.51
  C 723.69 63.02 722.78 60.29 720.60 58.17
  C 717.78 55.44 713.95 54.00 710.21 55.90
  Q 704.47 58.81 702.86 65.08
  Q 700.67 73.61 705.75 79.47
  Q 710.90 85.41 717.15 90.87
  Q 726.29 98.86 732.06 106.72
  C 738.02 114.84 738.51 125.06 735.54 134.51
  C 732.61 143.86 724.54 149.91 715.32 153.23
  Q 712.75 154.15 709.97 153.81
  Q 706.43 153.39 704.06 152.51
  C 701.65 151.62 699.05 150.63 696.95 149.20
  Q 690.41 144.75 686.24 137.64
  Q 685.95 137.14 686.38 136.76
  L 696.47 127.82
  Q 698.42 126.09 699.28 128.54
  Q 700.80 132.84 704.44 135.81
  Q 708.43 139.07 712.96 137.71
  Q 717.20 136.43 719.43 132.34
  C 719.90 131.48 719.96 130.48 720.54 129.82
  Q 720.91 129.41 721.09 128.88
  Q 722.89 123.79 720.81 118.39
  Z"
/>
<path fill="#f5530f" d="
  M 521.46 92.01
  A 2.39 2.38 -51.9 0 0 521.85 95.24
  C 523.98 97.05 525.29 99.58 526.61 101.95
  Q 527.65 103.82 528.32 106.19
  Q 532.36 120.44 527.32 134.15
  C 525.58 138.89 522.46 143.08 518.69 145.65
  C 517.25 146.64 515.84 147.71 514.21 148.39
  Q 506.82 151.49 500.88 151.81
  Q 489.76 152.42 474.40 152.45
  Q 472.99 152.45 472.99 151.05
  L 473.00 42.27
  Q 473.00 40.62 474.65 40.63
  C 480.72 40.64 486.41 40.86 491.77 40.35
  C 493.22 40.21 494.81 40.56 496.30 40.59
  Q 507.07 40.85 514.40 44.29
  Q 518.43 46.19 522.40 50.77
  C 523.77 52.35 524.14 54.16 525.39 55.71
  Q 525.99 56.45 526.15 57.34
  Q 526.53 59.53 527.30 61.68
  Q 528.04 63.75 528.12 66.04
  C 528.19 68.25 528.51 70.39 528.42 72.62
  Q 528.00 83.03 521.46 92.01
  Z
  M 488.92 56.11
  L 489.08 87.17
  A 0.24 0.24 0.0 0 0 489.32 87.41
  L 498.94 87.36
  A 14.26 14.10 89.7 0 0 512.97 73.03
  L 512.95 70.01
  A 14.26 14.10 89.7 0 0 498.78 55.82
  L 489.16 55.87
  A 0.24 0.24 0.0 0 0 488.92 56.11
  Z
  M 514.04 114.03
  Q 513.77 111.09 512.54 108.60
  Q 509.36 102.16 503.24 102.81
  C 498.81 103.28 494.07 103.02 489.72 102.99
  Q 489.00 102.98 489.00 103.70
  L 489.00 136.26
  Q 489.00 136.82 489.56 136.86
  Q 495.31 137.23 497.70 136.82
  Q 500.10 136.41 501.90 136.21
  Q 504.56 135.91 506.38 135.06
  Q 512.02 132.43 513.41 127.10
  Q 514.16 124.20 514.27 120.05
  Q 514.35 117.36 514.04 114.03
  Z"
/>
<rect fill="#f5530f" x="446.00" y="40.76" width="16.00" height="112.24" rx="0.84"/>
<path fill="#f5530f" d="
  M 678.00 137.38
  L 678.00 152.50
  A 0.50 0.50 0.0 0 1 677.50 153.00
  L 603.58 153.00
  A 0.50 0.50 0.0 0 1 603.08 152.50
  L 602.99 41.41
  A 0.50 0.50 0.0 0 1 603.49 40.91
  L 618.50 40.86
  A 0.50 0.50 0.0 0 1 619.00 41.36
  L 618.99 136.37
  A 0.50 0.50 0.0 0 0 619.49 136.87
  L 677.50 136.88
  A 0.50 0.50 0.0 0 1 678.00 137.38
  Z"
/>
<path fill="#f5530f" d="
  M 421.00 125.03
  L 421.00 42.50
  Q 421.00 41.00 422.50 41.00
  L 437.25 41.00
  A 0.75 0.75 0.0 0 1 438.00 41.75
  L 438.00 152.50
  Q 438.00 153.00 437.50 153.00
  L 421.75 153.00
  Q 421.00 153.00 421.00 152.25
  L 420.99 142.79
  Q 420.99 142.28 420.49 142.16
  Q 412.60 140.38 405.30 134.12
  Q 399.73 129.34 395.04 123.47
  Q 394.84 123.22 394.75 122.91
  Q 394.66 122.59 394.46 122.32
  Q 392.24 119.36 390.14 115.97
  C 389.69 115.25 389.00 114.77 388.94 113.88
  A 1.32 1.29 28.4 0 0 388.76 113.30
  Q 388.36 112.59 387.68 112.28
  Q 386.99 111.97 386.99 112.72
  L 387.02 152.49
  Q 387.02 153.00 386.51 153.00
  L 371.77 153.00
  A 0.74 0.73 -0.0 0 1 371.03 152.27
  L 370.93 41.53
  Q 370.93 41.00 371.47 41.00
  L 386.26 41.00
  A 0.78 0.78 0.0 0 1 387.04 41.80
  Q 386.84 49.39 387.09 56.51
  Q 387.31 63.07 389.60 71.90
  Q 394.07 89.19 399.74 100.73
  Q 402.37 106.07 406.04 111.86
  Q 411.56 120.57 420.41 125.38
  Q 421.00 125.70 421.00 125.03
  Z"
/>
<path fill="#f5530f" d="
  M 158.86 74.83
  C 160.68 74.42 164.41 73.43 166.04 74.36
  Q 166.60 74.67 167.24 74.72
  Q 170.59 74.93 174.10 76.35
  Q 187.73 81.85 192.36 95.68
  C 193.10 97.91 193.05 100.18 193.89 102.32
  A 1.74 1.73 -27.6 0 1 193.23 104.41
  C 190.05 106.48 189.39 109.14 189.76 112.81
  C 191.51 129.95 178.64 138.81 167.65 148.89
  Q 161.75 154.29 157.68 160.74
  Q 157.00 161.81 155.77 162.27
  Q 148.43 165.01 140.76 163.91
  Q 137.83 163.49 134.13 162.30
  Q 132.31 161.72 130.82 160.73
  C 127.70 158.67 126.11 161.13 123.47 162.10
  Q 110.06 167.05 97.58 160.71
  C 96.34 160.08 95.36 158.64 94.03 158.32
  A 1.42 1.42 0.0 0 0 93.12 158.41
  Q 87.40 161.04 81.03 161.84
  C 78.18 162.20 75.71 161.30 72.86 160.99
  C 68.19 160.50 63.27 157.46 59.25 154.32
  Q 57.90 153.27 56.90 151.85
  C 55.92 150.45 54.59 149.42 53.72 147.99
  Q 45.98 135.28 50.03 122.01
  Q 52.46 114.04 60.25 107.08
  C 61.31 106.13 62.57 105.79 63.52 104.77
  Q 63.86 104.42 63.90 103.94
  Q 66.00 82.09 86.31 75.48
  C 88.93 74.63 91.57 74.80 94.21 74.16
  C 95.76 73.79 97.15 74.17 98.61 74.71
  A 1.42 1.41 -67.4 0 0 100.40 73.97
  Q 106.51 60.55 120.37 56.10
  Q 124.22 54.86 129.16 54.89
  Q 134.25 54.91 138.48 56.35
  Q 148.89 59.90 155.01 69.13
  C 156.17 70.88 156.78 72.80 157.97 74.49
  Q 158.30 74.96 158.86 74.83
  Z
  M 81.67 103.53
  Q 82.17 99.54 84.61 96.62
  C 87.58 93.05 92.24 90.99 96.90 91.63
  Q 100.00 92.05 100.43 88.71
  A 2.75 2.75 0.0 0 0 98.52 85.73
  C 96.37 85.07 93.78 84.94 91.58 85.38
  Q 77.43 88.17 75.00 102.99
  C 74.56 105.67 76.31 109.20 79.63 107.57
  Q 80.61 107.09 80.99 106.10
  Q 81.52 104.73 81.67 103.53
  Z"
/>
<path fill="#f5530f" d="
  M 265.17 104.53
  A 0.86 0.85 -70.8 0 0 266.51 103.88
  Q 266.80 99.22 266.98 94.84
  C 267.04 93.22 267.66 91.87 267.85 90.27
  Q 268.02 88.74 268.73 87.13
  Q 269.43 85.52 270.04 83.88
  C 272.54 77.11 278.11 71.50 283.69 66.68
  Q 290.54 60.76 299.04 59.20
  Q 301.99 58.66 304.67 59.24
  Q 313.76 61.19 318.44 70.41
  Q 319.17 71.84 319.11 73.43
  Q 319.10 73.93 319.35 74.37
  L 319.81 75.18
  Q 320.11 75.70 320.00 76.29
  C 319.62 78.23 319.24 80.80 317.54 82.10
  Q 314.58 84.35 311.57 84.81
  Q 309.48 85.12 307.52 85.51
  Q 305.35 85.94 303.33 85.99
  C 301.25 86.04 298.18 85.62 296.31 86.55
  Q 295.52 86.94 294.70 87.16
  Q 294.05 87.33 293.93 87.99
  Q 293.54 90.10 294.36 92.03
  Q 296.03 96.01 297.57 99.66
  C 298.72 102.40 298.15 106.09 295.25 107.67
  Q 291.85 109.52 288.14 110.59
  Q 283.95 111.81 279.72 113.40
  Q 274.37 115.40 272.61 120.23
  C 271.60 123.01 272.00 126.37 271.93 129.37
  A 1.45 1.45 0.0 0 1 269.61 130.49
  Q 268.72 129.83 268.45 128.69
  Q 266.66 121.06 262.93 116.07
  Q 261.43 114.07 258.32 112.58
  Q 257.04 111.96 255.65 111.97
  C 254.35 111.97 253.56 111.27 252.20 111.22
  Q 247.17 111.04 241.53 109.99
  Q 237.93 109.32 235.25 107.71
  C 232.48 106.04 231.72 102.64 232.11 99.55
  Q 232.70 94.90 231.75 90.04
  Q 231.42 88.36 229.79 87.42
  Q 227.55 86.14 224.93 85.72
  Q 222.16 85.27 219.76 85.27
  Q 213.75 85.28 207.68 85.00
  C 203.77 84.82 199.17 82.27 200.21 77.54
  Q 200.75 75.05 201.01 72.66
  C 201.53 67.78 203.89 61.21 208.26 58.72
  Q 212.14 56.51 216.52 56.47
  Q 218.38 56.46 222.60 57.00
  Q 223.77 57.15 224.78 57.65
  Q 225.67 58.08 226.70 58.03
  Q 227.23 58.01 227.70 58.25
  Q 229.43 59.13 231.29 59.77
  Q 233.04 60.37 234.86 61.26
  Q 246.73 67.08 254.13 78.80
  Q 261.43 90.38 264.41 103.39
  Q 264.58 104.13 265.17 104.53
  Z"
/>
<path fill="#f5530f" d="
  M 180.98 160.72
  Q 172.77 167.45 170.18 179.25
  Q 167.31 192.33 171.31 204.83
  Q 172.28 207.87 174.02 210.85
  Q 175.74 213.80 177.77 216.06
  Q 180.54 219.15 176.73 217.50
  C 174.94 216.72 173.15 216.31 171.45 215.28
  Q 169.03 213.82 166.85 212.31
  Q 153.85 203.28 155.25 187.07
  C 156.36 174.30 163.83 162.54 173.12 153.90
  Q 177.79 149.56 182.53 145.52
  Q 188.49 140.44 192.86 132.68
  Q 198.44 122.78 196.67 111.58
  A 0.94 0.94 0.0 0 1 197.96 110.57
  Q 198.44 110.78 198.76 111.23
  Q 201.06 114.57 203.00 117.44
  Q 203.42 118.07 203.74 117.38
  Q 205.23 114.16 207.15 110.01
  Q 207.33 109.63 207.65 109.39
  A 1.17 1.16 59.1 0 1 209.37 109.83
  L 213.09 117.39
  Q 213.45 118.12 213.89 117.43
  Q 215.59 114.82 217.23 112.30
  Q 217.86 111.33 218.74 110.63
  A 0.75 0.75 0.0 0 1 219.95 111.16
  Q 220.07 112.50 219.95 113.86
  Q 218.95 125.14 224.46 133.80
  Q 230.10 142.67 237.52 148.42
  Q 246.71 155.56 253.21 165.27
  Q 260.07 175.50 261.42 185.89
  Q 261.48 186.35 261.12 186.66
  Q 255.76 191.11 248.43 194.09
  Q 247.71 194.38 247.72 193.61
  Q 247.75 191.00 247.77 188.39
  C 247.79 186.37 247.00 184.78 246.99 182.83
  C 246.99 180.98 246.07 179.80 245.96 177.97
  Q 245.90 176.97 245.56 176.02
  C 243.28 169.63 239.96 164.31 234.57 160.23
  Q 233.89 159.72 234.26 160.48
  Q 238.38 168.93 240.64 178.82
  C 241.13 180.98 240.85 183.23 241.52 185.31
  Q 241.94 186.59 241.92 187.82
  Q 241.89 191.85 241.59 195.31
  Q 241.54 195.90 240.95 195.98
  Q 234.66 196.77 228.65 196.36
  A 1.06 1.05 3.6 0 1 227.67 195.26
  Q 228.12 185.54 227.09 175.49
  Q 226.91 173.74 226.52 172.15
  Q 226.12 170.52 225.72 168.79
  Q 224.15 162.08 220.19 157.34
  Q 217.37 153.97 218.53 158.21
  Q 219.28 160.96 219.76 164.15
  Q 220.12 166.52 220.53 168.57
  Q 220.97 170.78 221.08 172.94
  C 221.24 176.02 221.96 178.95 221.98 182.03
  Q 222.01 188.24 222.12 194.70
  A 0.60 0.59 -85.3 0 1 221.42 195.30
  L 216.34 194.41
  Q 215.81 194.32 215.33 194.56
  C 213.97 195.25 212.81 194.60 211.38 195.41
  Q 206.97 197.91 206.12 201.66
  Q 205.62 203.85 205.75 206.24
  C 205.97 210.26 209.02 214.36 211.71 217.11
  C 212.64 218.07 213.90 217.99 214.51 219.38
  Q 214.69 219.80 214.32 220.06
  Q 208.39 224.22 202.90 219.96
  C 198.70 216.70 196.91 211.13 195.89 205.98
  Q 195.23 202.63 194.94 198.49
  Q 193.61 179.14 197.71 160.81
  C 198.04 159.36 197.72 157.85 198.59 156.58
  Q 199.13 155.78 198.19 156.00
  Q 197.08 156.27 196.42 157.23
  Q 193.36 161.70 191.35 167.03
  Q 190.98 168.00 190.96 168.99
  C 190.95 169.95 190.35 170.73 190.18 171.70
  Q 189.14 177.89 189.10 179.68
  Q 188.86 188.81 189.07 198.79
  Q 189.12 200.76 189.67 202.71
  C 190.15 204.37 189.94 205.98 190.37 207.70
  Q 191.91 213.89 194.67 219.57
  Q 194.90 220.04 194.40 219.88
  Q 186.02 217.22 180.64 210.03
  C 179.03 207.88 178.13 205.57 176.96 203.21
  Q 176.10 201.49 175.89 199.66
  C 175.68 197.88 175.04 196.31 174.92 194.49
  Q 173.82 177.15 181.89 161.46
  Q 183.21 158.89 180.98 160.72
  Z"
/>
<path fill="#f5530f" d="
  M 261.44 164.44
  Q 259.50 161.27 257.32 158.19
  Q 252.80 151.79 247.03 146.77
  Q 245.48 145.42 243.96 144.01
  Q 242.78 142.93 243.85 141.73
  Q 251.44 133.23 261.94 129.24
  A 1.41 1.41 0.0 0 1 263.84 130.43
  C 264.17 133.79 266.83 135.81 270.26 136.10
  Q 276.41 136.62 277.86 130.32
  C 278.16 129.03 277.90 127.87 277.85 126.58
  Q 277.83 126.09 278.32 126.04
  Q 280.75 125.83 283.09 126.06
  Q 289.86 126.72 295.83 129.07
  Q 309.45 134.44 315.56 146.05
  Q 320.13 154.74 317.72 165.36
  Q 316.03 172.83 310.36 179.67
  C 306.40 184.46 301.05 187.48 296.69 191.72
  C 291.59 196.68 289.94 204.10 291.51 211.35
  Q 291.94 213.29 291.98 215.21
  Q 292.02 217.32 292.01 219.40
  A 0.77 0.74 -19.8 0 1 291.72 219.99
  L 289.66 221.64
  Q 289.23 221.99 288.68 221.90
  Q 284.81 221.26 283.96 218.00
  C 282.14 210.96 280.55 204.63 275.02 199.62
  Q 274.58 199.22 274.70 198.63
  Q 275.27 195.75 275.39 192.79
  Q 275.49 190.02 273.41 187.09
  Q 271.68 184.67 269.34 184.35
  A 1.07 1.07 0.0 0 1 268.47 183.63
  C 267.76 181.61 267.83 179.48 267.15 177.30
  Q 264.91 170.12 261.44 164.44
  Z"
/>
<path fill="#f5530f" d="
  M 492.85 179.29
  C 489.03 180.61 485.92 183.22 485.93 187.54
  Q 485.99 201.90 485.96 215.81
  C 485.96 219.85 489.53 223.28 493.38 223.81
  Q 495.83 224.15 498.06 222.25
  Q 499.92 220.67 501.47 218.67
  A 2.06 2.06 0.0 0 1 504.56 218.49
  Q 507.40 221.39 510.17 224.01
  C 513.75 227.39 505.82 232.69 503.27 234.03
  Q 492.61 239.61 483.31 233.67
  Q 477.30 229.83 474.56 223.53
  Q 472.80 219.47 472.93 211.56
  Q 473.13 199.45 472.93 188.85
  Q 472.83 183.77 474.23 180.43
  Q 477.14 173.47 483.58 169.36
  C 485.86 167.91 488.31 167.40 490.79 166.46
  Q 492.17 165.95 493.75 166.19
  Q 498.65 166.97 501.00 167.98
  C 504.04 169.29 510.51 173.21 511.03 176.65
  Q 511.13 177.37 510.70 177.97
  Q 507.91 181.85 504.54 184.62
  Q 502.94 185.93 501.44 184.50
  L 496.95 180.23
  Q 496.66 179.94 496.25 180.00
  Q 494.83 180.22 493.70 179.41
  A 0.95 0.92 52.3 0 0 492.85 179.29
  Z
  M 508.63 226.93
  Q 509.39 225.93 508.49 225.05
  L 503.65 220.36
  Q 502.74 219.48 502.05 220.54
  C 500.09 223.54 496.20 226.77 492.40 225.73
  Q 487.74 224.46 485.21 220.50
  Q 483.83 218.35 483.78 214.74
  Q 483.64 202.87 483.72 189.45
  Q 483.77 182.45 488.19 179.32
  Q 491.79 176.78 495.58 177.62
  Q 499.74 178.55 502.17 182.66
  A 0.90 0.89 -37.5 0 0 503.57 182.84
  L 508.87 177.55
  Q 509.34 177.08 508.93 176.55
  Q 503.23 169.17 494.01 168.45
  Q 491.34 168.25 488.77 169.15
  Q 479.50 172.41 476.09 181.08
  Q 474.73 184.54 474.84 191.01
  Q 475.05 203.77 474.93 215.18
  C 474.85 223.17 479.48 229.91 486.72 233.27
  Q 491.56 235.51 497.05 234.29
  Q 502.52 233.08 506.85 229.11
  Q 507.33 228.67 508.63 226.93
  Z"
/>
<path fill="#f5530f" d="
  M 135.28 197.08
  C 137.08 195.99 138.48 192.46 139.44 190.51
  C 139.85 189.68 139.88 188.61 140.43 187.96
  Q 140.81 187.51 141.10 187.01
  Q 145.55 179.26 150.36 172.15
  Q 150.44 172.04 150.55 172.10
  L 150.79 172.24
  Q 150.80 172.24 150.80 172.25
  Q 148.50 177.25 148.00 182.47
  Q 147.79 184.74 147.36 186.94
  C 146.66 190.56 147.74 194.56 148.33 198.23
  Q 148.65 200.21 148.03 202.08
  Q 145.77 208.83 143.54 216.27
  C 142.18 220.79 139.09 221.98 134.59 222.00
  Q 126.95 222.04 119.52 221.92
  Q 116.72 221.88 114.67 219.54
  Q 113.31 217.99 112.59 215.29
  C 108.08 198.46 100.85 181.81 90.58 167.84
  Q 90.27 167.43 90.67 167.09
  Q 92.03 165.95 93.55 166.62
  Q 97.39 168.30 101.00 169.68
  Q 101.86 170.01 103.11 170.06
  Q 103.62 170.08 104.03 170.37
  Q 106.16 171.83 107.66 174.09
  Q 111.58 179.96 115.25 185.67
  Q 115.96 186.78 116.43 188.10
  C 117.17 190.12 118.55 191.68 119.29 193.69
  Q 119.87 195.27 120.74 196.66
  Q 121.56 197.97 121.58 196.43
  L 122.07 171.44
  A 2.13 2.12 81.5 0 1 123.53 169.46
  L 128.16 167.94
  Q 128.59 167.79 129.01 167.95
  L 133.66 169.66
  A 1.97 1.96 10.3 0 1 134.94 171.50
  L 135.06 196.96
  A 0.15 0.14 -15.7 0 0 135.28 197.08
  Z"
/>
<path fill="#f5530f" d="
  M 453.79 179.30
  C 449.66 180.56 448.27 185.01 449.51 188.66
  C 450.02 190.16 452.28 192.62 453.48 193.74
  Q 458.53 198.44 463.55 203.48
  Q 467.91 207.85 469.12 213.38
  Q 470.29 218.76 468.48 224.13
  Q 465.45 233.14 455.62 236.61
  C 453.64 237.31 450.46 237.15 448.42 236.58
  Q 440.85 234.46 436.34 227.12
  C 435.51 225.75 436.48 223.99 437.50 223.05
  Q 440.22 220.55 443.47 218.10
  Q 445.04 216.92 446.17 218.52
  C 447.20 219.98 448.34 223.03 450.03 223.74
  C 451.64 224.41 453.43 224.20 454.65 222.86
  C 458.28 218.86 456.68 214.69 453.37 211.41
  Q 447.78 205.86 442.48 200.61
  Q 439.56 197.72 437.94 194.25
  Q 434.49 186.81 437.51 178.72
  C 440.91 169.62 449.56 164.97 459.01 167.72
  C 463.67 169.08 467.35 172.63 469.45 177.03
  A 2.01 2.00 -35.5 0 1 469.06 179.32
  Q 465.75 182.60 461.72 185.52
  Q 460.46 186.43 459.46 185.24
  Q 458.31 183.86 457.66 182.18
  C 457.13 180.80 455.89 180.11 454.69 179.41
  Q 454.26 179.16 453.79 179.30
  Z
  M 450.20 225.99
  C 447.81 225.14 446.40 222.78 445.20 220.63
  Q 444.34 219.10 443.21 220.44
  Q 441.17 222.84 438.76 224.53
  Q 437.56 225.36 438.35 226.59
  Q 442.59 233.21 449.82 234.94
  C 456.19 236.46 463.86 230.58 466.07 225.13
  Q 468.73 218.57 466.85 212.40
  Q 465.64 208.43 461.94 204.71
  Q 456.14 198.87 450.79 193.83
  C 446.00 189.31 445.45 182.50 451.06 178.36
  C 454.87 175.56 458.41 179.01 460.13 182.54
  Q 460.92 184.18 462.25 182.94
  L 466.40 179.10
  Q 467.70 177.89 466.76 176.38
  Q 463.11 170.47 456.95 169.25
  C 448.03 167.49 440.94 172.87 438.72 181.39
  Q 437.82 184.85 438.29 187.79
  Q 439.45 195.00 444.57 199.95
  Q 450.00 205.19 454.95 210.13
  Q 457.79 212.97 458.35 215.34
  C 459.35 219.66 457.82 224.14 453.50 225.95
  Q 451.95 226.60 450.20 225.99
  Z"
/>
<path fill="#f5530f" d="
  M 525.75 217.89
  L 525.65 233.97
  A 2.77 2.76 -88.7 0 1 522.78 236.72
  L 514.89 236.42
  A 1.93 1.92 0.3 0 1 513.04 234.55
  Q 513.00 233.36 512.99 232.36
  Q 512.82 204.05 512.87 169.63
  C 512.88 167.88 514.14 167.08 515.82 167.06
  Q 526.40 166.93 535.37 167.77
  Q 537.36 167.95 538.94 168.77
  C 540.44 169.54 542.11 170.02 543.42 171.09
  Q 547.61 174.54 549.17 177.88
  Q 549.87 179.38 550.51 181.08
  Q 551.14 182.77 551.32 184.48
  Q 551.47 186.00 551.95 187.39
  Q 552.15 187.99 551.96 188.59
  C 551.09 191.38 550.98 194.26 549.92 197.02
  Q 547.95 202.11 545.19 205.40
  Q 543.47 207.45 541.47 209.31
  Q 541.05 209.70 541.01 210.26
  Q 540.75 213.38 542.40 217.17
  Q 544.39 221.74 548.86 223.07
  Q 552.40 224.12 551.98 227.56
  Q 551.70 229.80 551.97 232.13
  Q 552.17 233.90 551.06 235.55
  A 1.11 1.11 0.0 0 1 550.21 236.05
  Q 548.75 236.17 547.27 236.02
  C 545.93 235.89 545.42 234.93 544.03 234.92
  Q 543.39 234.92 542.71 234.60
  Q 531.99 229.61 528.85 217.77
  Q 528.63 216.96 527.80 216.98
  L 526.60 217.02
  Q 525.76 217.05 525.75 217.89
  Z
  M 524.03 216.17
  L 529.48 214.27
  A 0.55 0.55 0.0 0 1 530.20 214.69
  Q 531.28 220.49 534.72 225.54
  C 537.09 229.02 540.58 231.45 544.39 233.07
  Q 546.40 233.93 548.65 234.09
  Q 549.75 234.16 549.75 233.06
  L 549.74 226.21
  Q 549.74 225.07 548.61 224.95
  Q 546.48 224.73 544.94 223.45
  Q 538.78 218.35 538.90 209.88
  A 1.48 1.46 -20.7 0 1 539.39 208.81
  Q 544.64 204.17 547.42 198.21
  Q 550.42 191.77 549.39 184.10
  Q 549.24 182.99 548.70 181.98
  Q 548.20 181.05 547.80 180.01
  Q 546.23 175.90 542.95 173.28
  C 541.23 171.91 539.15 171.39 537.35 170.18
  A 1.23 1.20 57.5 0 0 536.55 169.99
  C 534.50 170.26 532.87 169.35 530.88 169.26
  Q 522.86 168.89 515.39 169.00
  Q 514.84 169.01 514.85 169.55
  L 514.89 233.69
  Q 514.89 234.75 515.94 234.75
  L 522.04 234.74
  A 1.54 1.53 0.0 0 0 523.58 233.21
  L 523.56 216.83
  Q 523.56 216.34 524.03 216.17
  Z"
/>
<path fill="#f5530f" d="
  M 568.00 169.95
  L 568.00 233.89
  A 2.65 2.65 0.0 0 1 565.34 236.54
  L 557.71 236.53
  A 2.65 2.65 0.0 0 1 555.07 233.88
  L 555.09 169.52
  A 2.65 2.65 0.0 0 1 557.89 166.87
  L 565.50 167.31
  A 2.65 2.65 0.0 0 1 568.00 169.95
  Z
  M 566.00 169.90
  A 0.83 0.83 0.0 0 0 565.17 169.07
  L 557.83 169.07
  A 0.83 0.83 0.0 0 0 557.00 169.90
  L 557.00 233.78
  A 0.83 0.83 0.0 0 0 557.83 234.61
  L 565.17 234.61
  A 0.83 0.83 0.0 0 0 566.00 233.78
  L 566.00 169.90
  Z"
/>
<path fill="#f5530f" d="
  M 604.80 199.93
  Q 607.57 204.35 607.99 205.74
  Q 610.70 214.60 607.87 223.64
  C 606.74 227.25 604.67 230.55 601.51 232.35
  C 600.54 232.90 599.89 233.72 598.83 234.05
  C 596.45 234.81 594.22 235.82 591.67 235.92
  Q 583.50 236.22 575.66 236.44
  Q 571.97 236.54 572.00 232.86
  Q 572.25 201.40 572.04 171.66
  Q 572.01 167.33 576.08 167.13
  Q 587.68 166.56 594.50 167.93
  Q 598.42 168.72 602.10 171.53
  Q 605.52 174.14 606.90 178.11
  Q 609.55 185.72 607.92 192.11
  Q 606.99 195.79 604.81 199.08
  Q 604.54 199.50 604.80 199.93
  Z
  M 602.34 199.26
  Q 604.28 196.23 605.50 192.85
  Q 607.15 188.28 605.85 182.02
  Q 603.60 171.12 592.99 169.79
  C 592.20 169.69 591.71 169.17 590.93 169.14
  Q 583.07 168.82 574.84 169.17
  Q 574.26 169.20 574.26 169.78
  L 574.26 233.50
  Q 574.26 234.10 574.86 234.08
  C 575.91 234.05 576.76 234.46 577.91 234.37
  Q 582.60 234.02 586.72 234.07
  Q 591.78 234.13 594.52 233.30
  C 599.43 231.82 603.30 229.40 605.37 224.66
  Q 608.21 218.18 607.01 209.80
  C 606.81 208.35 605.87 207.66 605.96 206.15
  A 1.35 1.31 30.7 0 0 605.75 205.37
  L 602.34 200.22
  Q 602.03 199.74 602.34 199.26
  Z"
/>
<path fill="#f5530f" d="
  M 645.43 198.26
  A 2.68 2.67 -50.0 0 0 645.72 201.65
  Q 647.89 203.86 648.72 207.37
  Q 649.41 210.32 649.57 212.84
  Q 649.77 216.11 648.96 220.14
  C 647.55 227.19 644.45 232.12 637.16 234.68
  C 635.61 235.23 633.51 235.91 631.89 235.95
  Q 623.68 236.16 615.59 236.44
  Q 612.67 236.54 612.48 233.62
  Q 612.30 230.78 612.43 227.80
  Q 612.51 225.84 612.24 223.69
  C 612.01 221.87 612.50 220.00 612.49 218.11
  Q 612.45 204.35 612.16 192.26
  Q 612.11 190.25 612.35 188.06
  Q 612.61 185.63 612.11 183.17
  Q 612.01 182.69 612.16 182.22
  C 612.61 180.77 612.63 179.16 612.18 177.71
  C 611.98 177.09 612.45 176.28 612.43 175.51
  Q 612.35 173.25 612.35 171.23
  Q 612.37 166.95 616.75 167.01
  C 622.40 167.09 628.30 166.60 633.64 167.70
  Q 646.92 170.43 648.60 184.24
  Q 649.08 188.22 648.35 191.53
  Q 647.56 195.16 645.43 198.26
  Z
  M 642.30 199.60
  Q 645.86 194.48 646.48 188.79
  Q 646.75 186.33 646.37 183.59
  Q 644.93 173.43 636.20 170.28
  C 634.96 169.83 634.06 170.20 632.90 169.70
  Q 631.57 169.14 630.00 169.08
  Q 623.12 168.83 615.71 169.11
  A 1.35 1.34 88.9 0 0 614.42 170.46
  L 614.43 233.29
  Q 614.43 233.86 614.94 234.11
  C 616.72 235.04 618.87 234.01 620.86 234.06
  C 624.27 234.16 627.86 234.11 631.16 233.89
  Q 636.38 233.54 640.89 230.49
  Q 644.57 228.00 646.06 223.57
  C 648.65 215.83 648.39 206.44 642.38 200.41
  Q 642.00 200.04 642.30 199.60
  Z"
/>
<path fill="#f5530f" d="
  M 679.99 208.44
  Q 679.99 209.17 680.71 209.15
  Q 689.62 208.86 698.06 209.27
  Q 700.73 209.41 700.72 212.08
  L 700.70 219.26
  A 2.71 2.70 0.1 0 1 697.99 221.95
  L 669.79 222.01
  Q 667.06 222.02 667.06 219.29
  L 667.05 170.03
  A 2.68 2.67 -1.3 0 1 669.60 167.36
  Q 684.44 166.67 697.99 167.15
  Q 700.57 167.24 700.65 169.89
  Q 700.75 173.24 700.69 176.58
  A 2.73 2.73 0.0 0 1 698.09 179.26
  Q 689.16 179.69 680.69 179.57
  Q 680.05 179.56 680.03 180.20
  L 679.83 186.30
  A 0.67 0.66 8.0 0 0 680.34 186.97
  Q 681.78 187.32 682.92 186.27
  A 1.32 1.26 19.8 0 1 683.69 185.93
  L 690.66 185.29
  A 2.81 2.80 83.7 0 1 693.69 187.72
  Q 694.18 191.50 693.97 195.51
  Q 693.95 196.05 693.61 196.46
  Q 692.36 197.98 690.25 197.92
  Q 684.05 197.74 680.32 202.20
  Q 680.00 202.59 680.00 203.09
  L 679.99 208.44
  Z
  M 678.42 177.64
  L 697.42 177.43
  A 1.35 1.35 0.0 0 0 698.75 176.08
  L 698.75 170.00
  Q 698.75 169.01 697.75 169.01
  L 671.27 169.04
  A 2.20 2.19 -0.1 0 0 669.08 171.23
  L 669.08 219.57
  Q 669.08 220.06 669.57 220.06
  L 698.20 219.75
  Q 698.89 219.74 698.89 219.05
  L 698.91 211.92
  Q 698.91 211.18 698.17 211.18
  L 678.43 211.04
  A 0.56 0.56 0.0 0 1 677.87 210.48
  Q 677.90 207.49 677.88 204.04
  C 677.86 200.90 680.64 198.74 683.24 197.47
  Q 687.06 195.61 690.63 195.94
  A 1.17 1.17 0.0 0 0 691.91 194.76
  L 691.81 188.33
  Q 691.79 187.01 690.47 187.14
  Q 686.35 187.55 682.03 188.52
  Q 680.46 188.88 679.09 190.06
  A 0.82 0.81 -20.5 0 1 677.74 189.45
  L 677.75 178.33
  Q 677.75 177.65 678.42 177.64
  Z"
/>
<path fill="#f5530f" d="
  M 721.85 179.27
  Q 720.26 179.71 719.37 180.70
  Q 716.50 183.89 717.43 187.85
  Q 717.92 189.93 719.86 191.89
  Q 724.90 196.97 729.83 201.64
  Q 734.42 205.99 736.04 209.54
  Q 738.41 214.76 737.66 219.78
  Q 735.91 231.59 725.19 236.08
  C 720.19 238.18 714.01 236.54 709.96 233.42
  Q 707.00 231.14 704.26 226.86
  Q 703.98 226.42 704.04 225.91
  Q 704.27 223.91 705.95 222.65
  Q 708.63 220.64 711.24 218.26
  Q 712.69 216.94 714.09 218.32
  C 715.55 219.76 715.71 221.66 717.16 222.98
  C 718.55 224.25 720.89 224.57 722.34 223.22
  C 727.53 218.40 723.97 213.70 720.05 209.97
  C 715.65 205.79 710.75 201.52 707.40 196.60
  Q 706.12 194.72 705.55 192.76
  Q 704.90 190.52 704.34 188.29
  Q 703.85 186.35 704.36 184.01
  Q 704.88 181.66 705.46 179.40
  Q 706.61 174.92 710.82 171.04
  Q 715.88 166.38 723.69 166.98
  C 729.70 167.45 735.15 171.85 737.70 177.26
  A 1.89 1.88 57.6 0 1 737.20 179.51
  L 729.87 185.61
  A 1.40 1.40 0.0 0 1 728.05 185.59
  Q 726.69 184.39 726.07 182.69
  C 725.48 181.04 724.07 180.15 722.60 179.36
  A 1.00 0.98 51.2 0 0 721.85 179.27
  Z
  M 722.59 225.48
  C 718.48 228.33 714.82 223.40 713.11 220.43
  A 0.90 0.90 0.0 0 0 711.72 220.22
  L 706.34 225.17
  Q 705.97 225.52 706.22 225.96
  Q 709.31 231.50 714.89 233.91
  Q 718.70 235.56 721.84 234.98
  Q 725.41 234.32 728.54 231.98
  Q 732.00 229.39 733.45 226.44
  Q 739.50 214.19 729.88 204.53
  Q 724.36 199.00 718.90 193.60
  Q 712.93 187.70 716.52 181.07
  Q 717.65 178.97 720.68 177.55
  C 721.58 177.12 722.30 177.48 723.19 177.59
  C 725.39 177.87 727.41 180.83 728.28 182.62
  Q 729.06 184.20 730.34 183.00
  L 734.87 178.73
  Q 735.96 177.70 735.14 176.45
  Q 731.34 170.66 725.24 169.26
  C 719.03 167.84 712.36 170.72 709.04 176.18
  Q 706.33 180.64 706.21 185.99
  C 706.18 187.40 706.84 188.43 706.91 189.78
  C 707.03 191.94 708.73 195.37 710.14 197.03
  Q 715.15 202.95 720.89 207.66
  C 722.35 208.86 723.07 210.53 724.46 211.78
  Q 725.78 212.95 726.26 214.66
  Q 728.22 221.58 722.59 225.48
  Z"
/>
<path fill="#f5530f" d="
  M 667.95 223.48
  L 698.80 223.46
  A 1.96 1.96 0.0 0 1 700.76 225.43
  L 700.72 234.63
  A 1.96 1.96 0.0 0 1 698.76 236.58
  L 655.14 236.62
  A 1.96 1.96 0.0 0 1 653.18 234.65
  L 653.50 169.52
  A 1.96 1.96 0.0 0 1 655.50 167.57
  L 664.09 167.72
  A 1.96 1.96 0.0 0 1 666.01 169.68
  L 665.99 221.52
  A 1.96 1.96 0.0 0 0 667.95 223.48
  Z
  M 665.12 225.42
  A 1.16 1.16 0.0 0 1 663.96 224.26
  L 664.02 170.41
  A 1.16 1.16 0.0 0 0 662.86 169.25
  L 656.47 169.26
  A 1.16 1.16 0.0 0 0 655.31 170.42
  L 655.12 233.43
  A 1.16 1.16 0.0 0 0 656.28 234.59
  L 697.58 234.57
  A 1.16 1.16 0.0 0 0 698.74 233.41
  L 698.75 226.56
  A 1.16 1.16 0.0 0 0 697.59 225.40
  L 665.12 225.42
  Z"
/>
<path fill="#f5530f" d="
  M 399.96 198.25
  A 0.43 0.42 18.6 0 0 400.30 198.93
  L 410.46 198.92
  A 2.09 2.09 0.0 0 1 412.54 200.85
  Q 412.87 204.95 412.75 208.89
  C 412.70 210.54 412.16 211.93 412.11 213.53
  Q 412.04 215.25 411.44 216.67
  Q 410.66 218.50 410.14 220.50
  Q 409.75 221.98 408.72 223.11
  Q 408.32 223.55 408.68 224.02
  L 410.89 226.95
  A 1.91 1.90 50.1 0 1 410.67 229.50
  L 403.94 235.71
  A 1.55 1.54 -43.8 0 1 401.79 235.67
  L 399.21 233.08
  A 0.68 0.66 52.0 0 0 398.40 232.97
  C 393.32 235.91 387.65 237.53 382.14 235.87
  Q 379.49 235.07 377.70 233.55
  Q 367.57 224.95 372.51 211.85
  Q 373.68 208.74 375.57 205.77
  C 376.16 204.84 376.19 203.00 375.70 202.02
  Q 370.28 191.13 377.19 181.19
  C 378.31 179.58 379.92 178.50 381.25 177.11
  Q 381.98 176.36 382.92 176.01
  Q 385.09 175.22 387.26 174.45
  Q 389.02 173.83 390.83 174.12
  Q 394.66 174.75 396.97 175.95
  Q 405.10 180.16 404.07 189.38
  C 403.70 192.71 401.96 195.68 399.96 198.25
  Z
  M 399.08 216.50
  C 397.11 215.11 396.10 213.28 394.62 211.48
  Q 392.53 208.94 390.81 206.29
  Q 390.44 205.72 390.91 205.23
  Q 396.14 199.89 399.51 195.52
  Q 403.10 190.87 401.81 184.24
  C 401.58 183.03 400.79 182.55 400.21 181.58
  C 397.66 177.22 392.37 175.82 387.56 176.73
  C 380.60 178.04 375.51 184.96 375.50 191.77
  Q 375.49 196.35 378.36 203.53
  Q 378.58 204.10 378.31 204.65
  Q 377.69 205.92 376.91 207.14
  C 374.43 211.04 372.54 215.96 372.92 220.65
  Q 373.61 229.33 381.27 233.51
  C 382.60 234.24 383.65 233.77 384.91 234.34
  Q 386.16 234.90 387.57 234.69
  Q 393.05 233.89 397.96 230.93
  Q 399.26 230.15 400.32 231.24
  L 402.30 233.28
  Q 403.09 234.10 403.90 233.31
  L 408.56 228.78
  Q 409.51 227.86 408.47 227.04
  Q 407.39 226.18 406.16 224.37
  Q 405.84 223.91 406.12 223.41
  C 406.70 222.36 407.44 221.81 407.88 220.59
  Q 408.72 218.22 409.56 215.92
  Q 409.95 214.85 409.96 213.82
  C 409.99 212.05 410.76 210.59 410.75 208.81
  Q 410.73 205.28 410.77 201.58
  A 0.60 0.59 -87.4 0 0 410.23 200.98
  Q 405.09 200.51 399.50 201.05
  Q 399.05 201.09 399.06 201.54
  L 399.09 208.71
  Q 399.09 209.45 399.83 209.56
  Q 400.50 209.65 401.04 209.98
  Q 401.54 210.29 401.38 210.84
  L 399.83 216.24
  Q 399.64 216.90 399.08 216.50
  Z
  M 396.46 202.23
  L 393.20 205.52
  Q 392.76 205.96 393.13 206.47
  Q 395.84 210.14 398.42 212.86
  Q 398.55 213.00 398.71 212.96
  A 0.19 0.19 0.0 0 0 398.83 212.68
  L 397.43 210.40
  Q 397.17 209.98 397.17 209.48
  L 397.09 202.48
  Q 397.08 201.60 396.46 202.23
  Z"
/>
<path fill="#f5530f" d="
  M 537.01 180.07
  Q 537.50 180.17 537.84 180.51
  Q 541.66 184.21 540.65 189.82
  C 539.08 198.49 532.85 204.08 524.67 206.39
  A 0.62 0.62 0.0 0 1 523.88 205.80
  L 523.88 178.73
  Q 523.88 178.18 524.43 178.12
  Q 529.58 177.55 534.76 178.86
  Q 535.64 179.09 536.26 179.68
  A 1.57 1.56 -17.4 0 0 537.01 180.07
  Z
  M 526.51 203.60
  C 527.92 202.96 529.51 202.32 530.84 201.47
  Q 536.30 197.99 538.41 191.16
  Q 539.52 187.57 538.22 184.61
  C 536.12 179.80 531.11 179.99 526.58 180.09
  Q 525.99 180.10 525.99 180.69
  L 525.99 203.26
  Q 525.99 203.84 526.51 203.60
  Z"
/>
<path fill="#f5530f" d="
  M 582.97 178.17
  A 0.28 0.28 0.0 0 1 583.25 177.89
  L 589.30 177.86
  A 9.11 8.51 89.7 0 1 597.86 186.92
  L 597.86 187.36
  A 9.11 8.51 89.7 0 1 589.40 196.52
  L 583.35 196.55
  A 0.28 0.28 0.0 0 1 583.07 196.27
  L 582.97 178.17
  Z
  M 584.98 180.34
  L 585.02 194.02
  A 0.44 0.44 0.0 0 0 585.47 194.46
  L 589.41 194.44
  A 6.46 6.22 89.8 0 0 595.60 187.96
  L 595.60 186.32
  A 6.46 6.22 89.8 0 0 589.35 179.88
  L 585.41 179.90
  A 0.44 0.44 0.0 0 0 584.98 180.34
  Z"
/>
<path fill="#f5530f" d="
  M 623.06 178.98
  A 1.09 1.09 0.0 0 1 624.15 177.89
  L 629.80 177.89
  A 8.89 8.16 90.0 0 1 637.96 186.78
  L 637.96 187.60
  A 8.89 8.16 90.0 0 1 629.80 196.49
  L 624.15 196.49
  A 1.09 1.09 0.0 0 1 623.06 195.40
  L 623.06 178.98
  Z
  M 625.08 180.13
  L 625.08 194.17
  A 0.29 0.29 0.0 0 0 625.37 194.46
  L 629.51 194.46
  A 6.89 6.41 90.0 0 0 635.92 187.57
  L 635.92 186.73
  A 6.89 6.41 -90.0 0 0 629.51 179.84
  L 625.37 179.84
  A 0.29 0.29 0.0 0 0 625.08 180.13
  Z"
/>
<path fill="#f5530f" d="
  M 393.15 187.37
  Q 393.16 188.85 392.32 190.14
  Q 389.71 194.17 385.94 197.22
  Q 385.49 197.58 385.34 197.02
  Q 384.21 192.89 384.65 190.46
  Q 384.87 189.29 386.08 187.45
  C 387.33 185.55 389.60 185.23 391.65 185.60
  A 1.81 1.81 0.0 0 1 393.15 187.37
  Z
  M 387.30 193.30
  L 391.29 188.63
  A 0.15 0.15 0.0 0 0 391.27 188.42
  L 391.20 188.36
  A 3.11 2.32 -49.5 0 0 387.42 189.22
  L 387.28 189.38
  A 3.11 2.32 -49.5 0 0 387.02 193.25
  L 387.09 193.31
  A 0.15 0.15 0.0 0 0 387.30 193.30
  Z"
/>
<path fill="#f5530f" d="
  M 227.05 203.29
  C 241.17 205.37 254.80 200.78 266.00 191.58
  A 1.22 1.22 0.0 0 1 267.99 192.49
  Q 268.08 195.89 267.09 199.68
  C 266.83 200.69 267.16 201.71 266.84 202.76
  Q 264.44 210.52 259.79 214.58
  C 251.59 221.75 239.33 224.62 228.86 220.32
  Q 223.95 218.31 219.96 215.28
  C 217.27 213.24 209.19 205.17 214.12 202.29
  C 215.64 201.40 217.17 201.86 218.89 202.04
  C 220.56 202.20 221.84 202.97 223.60 203.00
  Q 225.37 203.04 227.05 203.29
  Z"
/>
<path fill="#f5530f" d="
  M 583.03 206.26
  A 1.17 1.17 0.0 0 1 584.20 205.08
  L 590.14 205.05
  A 8.27 8.27 0.0 0 1 598.45 213.28
  L 598.47 217.04
  A 8.27 8.27 0.0 0 1 590.24 225.35
  L 584.30 225.38
  A 1.17 1.17 0.0 0 1 583.13 224.22
  L 583.03 206.26
  Z
  M 585.08 207.31
  L 585.10 223.23
  A 0.21 0.21 0.0 0 0 585.31 223.44
  L 590.04 223.43
  A 6.50 6.37 -0.1 0 0 596.53 217.05
  L 596.53 213.45
  A 6.50 6.37 -0.1 0 0 590.02 207.09
  L 585.29 207.10
  A 0.21 0.21 0.0 0 0 585.08 207.31
  Z"
/>
<path fill="#f5530f" d="
  M 623.28 206.14
  A 1.08 1.08 0.0 0 1 624.36 205.06
  L 630.38 205.07
  A 8.65 8.36 -89.9 0 1 638.72 213.73
  L 638.72 216.77
  A 8.65 8.36 -89.9 0 1 630.34 225.41
  L 624.32 225.40
  A 1.08 1.08 0.0 0 1 623.24 224.32
  L 623.28 206.14
  Z
  M 625.21 208.33
  L 625.31 222.21
  A 1.22 1.22 0.0 0 0 626.54 223.42
  L 630.49 223.39
  A 6.53 6.31 89.6 0 0 636.75 216.82
  L 636.73 213.56
  A 6.53 6.31 89.6 0 0 630.37 207.07
  L 626.42 207.10
  A 1.22 1.22 0.0 0 0 625.21 208.33
  Z"
/>
<path fill="#f5530f" d="
  M 385.14 214.13
  L 391.59 221.79
  A 1.70 1.70 0.0 0 1 390.82 224.50
  L 386.72 225.84
  A 1.70 1.70 0.0 0 1 385.10 225.52
  L 382.63 223.45
  A 1.70 1.70 0.0 0 1 382.02 222.12
  L 382.14 215.20
  A 1.70 1.70 0.0 0 1 385.14 214.13
  Z
  M 384.98 217.22
  A 0.60 0.60 0.0 0 0 383.94 217.65
  L 384.10 221.69
  A 0.60 0.60 0.0 0 0 384.35 222.16
  L 386.84 223.92
  A 0.60 0.60 0.0 0 0 387.45 223.97
  L 389.25 223.12
  A 0.60 0.60 0.0 0 0 389.44 222.17
  L 384.98 217.22
  Z"
/>
</svg>
