<?xml version="1.0" encoding="utf-8"?>
<!DOCTYPE svg PUBLIC "-//W3C//DTD SVG 1.0//EN" "http://www.w3.org/TR/2001/REC-SVG-20010904/DTD/svg10.dtd">
<svg version="1.0" xmlns="http://www.w3.org/2000/svg" width="498px" height="202px" viewBox="0 0 498 202" preserveAspectRatio="xMidYMid meet">
 <g fill="#ffffff">
  <path d="M342.3 89.1 c0.4 -20.7 0.7 -41.3 0.7 -45.9 l0 -8.3 16.8 0.7 c9.2 0.4 17.4 0.8 18.2 1 0.8 0.1 2.1 0.3 2.8 0.3 0.8 0.1 1.2 2.2 1.2 7.2 l0 7.1 -12.2 -0.3 -12.3 -0.4 -0.3 13.3 -0.3 13.2 6.1 0 6 0 0 3.9 c0 2.1 0.3 5.2 0.6 6.9 l0.6 3.1 -6.3 0.3 -6.4 0.3 -0.3 10.3 -0.3 10.3 12.6 -0.7 12.5 -0.7 0 7.1 0 7.1 -3.2 0.5 c-1.8 0.3 -10.9 0.7 -20.2 0.9 l-16.9 0.4 0.6 -37.6z"/>
  <path d="M408.5 125.7 c-2.2 -0.8 -5 -1.9 -6.3 -2.6 -2.2 -1.2 -8.2 -8.6 -8.2 -10.2 0 -0.4 2.9 -1.7 6.5 -2.9 l6.5 -2.2 2.6 2.1 c5 4 17.3 2.1 18.9 -2.9 1.6 -5 -3.1 -10.2 -23.2 -25.6 -6.6 -5.1 -8.6 -7.3 -11.2 -12.4 -5.6 -11.3 -3.7 -22.5 5.4 -31.6 11.4 -11.5 28 -11.1 39.6 0.9 2.3 2.2 5 5.8 6 7.9 l2 3.9 -6.3 2.8 -6.3 2.9 -1.5 -2.1 c-7.6 -10.8 -14.5 -13.1 -22.1 -7.5 -1.6 1.2 -3.6 4.1 -4.5 6.4 -2.9 7.7 0.1 12.3 16 23.9 15.3 11.2 20.6 18.6 20.6 29 0 8.5 -3.7 13.9 -12.8 18.5 -5.5 2.7 -16.1 3.5 -21.7 1.7z"/>
  <path d="M50 80 l0 -45.1 7.7 0.3 7.7 0.3 16.7 25 c19.8 29.6 22 32.7 22.5 32.3 0.2 -0.2 -0.5 -10.1 -1.6 -21.8 -2.7 -29.8 -3.3 -26.7 4.8 -27.2 3.7 -0.3 6.8 -0.4 7 -0.3 0.4 0.3 7.4 79.7 7 80 -0.2 0.1 -3.4 0.5 -7.3 0.8 l-7 0.5 -21 -31.6 c-19.4 -29.1 -21 -31.3 -21.6 -28.6 -0.4 1.6 -0.7 15.8 -0.8 31.7 l-0.1 28.7 -7 0 -7 0 0 -45z"/>
  <path d="M295.5 123.8 c-0.3 -0.7 -0.4 -20.4 -0.3 -43.8 l0.3 -42.5 7.3 -0.3 7.2 -0.3 0 36.6 0 36.5 11.5 0 11.5 0 0 7.5 0 7.5 -18.5 0 c-13.9 0 -18.7 -0.3 -19 -1.2z"/>
  <path d="M137 81 l0 -43 7.5 0 7.5 0 0 43 0 43 -7.5 0 -7.5 0 0 -43z"/>
  <path d="M162 77.4 l0 -46.6 11.3 0.3 c10.8 0.4 11.5 0.5 17.1 3.9 16.4 9.9 21.5 28.2 10.9 39.2 -1.5 1.5 -2.5 2.9 -2.2 3.1 0.2 0.1 3 1.9 6.1 4 7.5 4.9 11.8 11.9 11.8 19.5 0 6.3 -1.6 9.8 -6.6 14.2 -7.4 6.4 -18 9 -37.3 9 l-11.1 0 0 -46.6z m26.3 31.1 c6.9 -0.6 13.3 -3.6 14.2 -6.6 1.8 -5.5 -8 -12 -19.2 -12.7 l-7.3 -0.5 0 10.1 c0 10.5 0.4 11.3 4.5 10.7 1.1 -0.2 4.6 -0.6 7.8 -1z m0.7 -42.5 c5.7 -5.3 3 -13.4 -6.1 -18 -6.9 -3.6 -6.9 -3.5 -6.9 10.3 0 6.8 0.3 12.6 0.6 12.9 1.1 1.1 9.4 -2.4 12.4 -5.2z"/>
  <path d="M227.8 77.4 l-0.3 -46.6 11 0.4 c13.2 0.4 17.8 2.3 25.5 10.4 9.8 10.3 11.2 20.5 4.3 30.8 -3.2 4.6 -3.3 5.2 -1.8 6.1 13.1 7.7 18.6 17.6 15.6 27.6 -3.6 12 -17.6 17.9 -42.8 17.9 l-11.3 0 -0.2 -46.6z m31.9 30.1 c2.7 -0.8 6 -2.6 7.2 -3.9 2.3 -2.5 2.3 -2.5 0.5 -5.8 -2.7 -4.6 -9.8 -8 -18.5 -8.6 l-6.9 -0.5 0 10.8 0 10.8 6.4 -0.7 c3.5 -0.3 8.6 -1.3 11.3 -2.1z m-4.6 -41.9 c1.8 -1.7 2.9 -3.8 2.9 -5.4 0 -5.6 -6.2 -12 -13.2 -13.7 l-2.8 -0.7 0 12.4 c0 6.9 0.3 12.7 0.6 13.1 1 1 9.4 -2.8 12.5 -5.7z"/>
 </g>
 <g fill="#f5520f">
  <path d="M62.1 180.6 c-3.1 -1.7 -5 -5.3 -5.1 -9.5 0 -2.8 0.8 -4.2 4.6 -7.8 4.5 -4.2 4.6 -4.4 3 -6.2 -1 -1.1 -1.8 -3.6 -1.9 -5.6 -0.1 -4.8 2.7 -7.5 8.4 -8.1 4.2 -0.4 4.2 -0.3 1.2 0.6 -1.7 0.6 -3.5 1.9 -3.8 3 -0.6 1.9 1.9 8.5 3.7 9.6 1.2 0.8 5.8 -3.5 5.9 -5.5 0 -1.2 0.2 -1.2 0.6 -0.3 0.3 0.8 -0.8 2.7 -2.3 4.4 l-2.9 2.9 3.7 3.5 c4.4 3.9 5.3 4.1 6.8 1.4 1.5 -2.8 6.7 -5.3 9.6 -4.6 1.3 0.4 3.1 1.7 4 3.1 1.5 2.3 1.5 2.7 0 5 -1.8 2.7 -5.6 3.4 -5.6 1 0 -1.7 -3 -3.5 -5.9 -3.5 -4.4 0 -3.4 2.5 3.8 9.2 7.2 6.7 7.3 6.8 4.2 6.8 -4 0 -9.1 -2.1 -11.5 -4.9 -2.4 -2.7 -3 -2.7 -4.4 0.4 -2.5 5.4 -10.8 8 -16.1 5.1z m15.4 -6.2 c0.9 -0.9 1.5 -1.9 1.3 -2.3 -0.7 -1.5 -11.6 -11.1 -12.6 -11.1 -1.6 0 -3.2 3.3 -3.2 6.5 0 4 5 8.5 9.4 8.5 1.9 0 4.2 -0.7 5.1 -1.6z"/>
  <path d="M141 179.7 c-1.8 -0.9 -2.5 -2.1 -2.5 -4.2 0 -2.5 0.4 -3.1 2.6 -3.3 2.4 -0.3 2.6 0 2.1 2.3 -0.3 1.6 0.2 3.3 1.3 4.5 2.2 2.4 0.5 2.7 -3.5 0.7z"/>
  <path d="M152.3 179.9 c0.9 -0.5 1.7 -2.1 1.7 -3.4 0 -1.9 -1.2 -3.1 -5.2 -5.4 -8.9 -4.9 -9.8 -5.9 -9.8 -9.6 0 -4.1 2.8 -6.4 8.6 -7 3.2 -0.4 3.4 -0.3 0.9 0.3 -5 1.2 -4.5 4.5 1.2 7.8 9.1 5.2 11.6 8.8 9.7 13.9 -0.4 0.8 -1.9 2.2 -3.5 3 -3.2 1.7 -6.4 2 -3.6 0.4z"/>
  <path d="M182.1 179.7 c-5.9 -3 -8.3 -12.6 -4.7 -19.4 1.6 -3.2 7.7 -6.3 11.9 -6.3 1.9 0.1 1.7 0.3 -0.9 1.4 -5.4 2.4 -7 12 -3 18.1 2.1 3.2 6.7 4 10.6 2 3 -1.5 3 -1.5 1.9 0.3 -2.9 4.7 -10.7 6.6 -15.8 3.9z"/>
  <path d="M286.7 180.3 c-1.5 -0.4 -1.4 -0.8 1.2 -3.2 5.6 -5.2 5 -18 -1.1 -20.5 -2.4 -1.1 -2.7 -1.4 -1.3 -2 8.8 -3.3 15.8 5 14.1 16.8 -1 6.6 -6.8 10.6 -12.9 8.9z"/>
  <path d="M327.6 180.3 c-1.7 -0.5 -1.6 -0.7 0.9 -2.7 6.5 -5.2 4.1 -22.4 -2.9 -21.4 -2 0.3 -2.1 1.1 -2.4 11.1 -0.2 8.2 0 10.7 1 10.8 2.5 0.1 -2.8 1.8 -5.9 1.8 l-3.3 0.1 0 -20 c0 -21.8 -0.3 -21 5.8 -19.4 2 0.6 2.2 1.2 2.2 8 l0 7.4 2.6 -1 c7.4 -2.8 13.7 1 14.9 9.2 0.8 5.2 -0.7 11.8 -3.3 14.1 -2 1.9 -6.7 2.8 -9.6 2z"/>
  <path d="M383.4 177.6 c-3 -3 -3.4 -4 -3.4 -8.5 0 -5.8 1.8 -10.2 5.2 -12.5 3.8 -2.7 4.7 -2.1 3.2 2.2 -2.3 6.4 -2 7.2 3 7.2 2.5 0 4.7 -0.4 5 -0.8 1.1 -1.8 -1.6 -9.1 -3.6 -9.8 -3.4 -1.1 -1.3 -1.4 2.5 -0.3 4.3 1.2 7.7 5.1 7.7 9 0 1.6 -0.3 2.8 -0.7 2.8 -0.5 -0.1 -4 -0.1 -8 0 l-7.2 0.1 0.9 3.1 c1.8 6.2 6.8 8.7 12.1 5.9 2.9 -1.6 2.4 0.5 -0.7 2.9 -1.9 1.5 -4.1 2.1 -7.6 2.1 -4.3 0 -5.4 -0.4 -8.4 -3.4z"/>
  <path d="M421.2 179.8 c-2.3 -1.2 -3.9 -4.9 -2.7 -6.7 0.3 -0.6 1.7 -1.1 3 -1.1 2.2 0 2.4 0.3 1.9 2.8 -0.4 1.9 0 3.4 1.1 4.5 1.9 2 0.3 2.2 -3.3 0.5z"/>
  <path d="M433 179 c2.8 -2.8 1.7 -4.4 -6.6 -9.4 -6.7 -4 -6.9 -4.3 -6.9 -8.1 0 -3.6 0.4 -4.2 3.5 -5.7 4.2 -2 6.1 -2.3 3.6 -0.5 -2.9 2.1 -1.5 5 3.6 7.7 8.6 4.7 11.1 8.4 9.2 13.5 -0.6 1.6 -5.4 4.5 -7.4 4.5 -0.5 0 -0.1 -0.9 1 -2z"/>
  <path d="M214.7 179.3 c-0.4 -0.3 -0.7 -5.9 -0.7 -12.3 l0 -11.7 3.3 0.5 c1.7 0.3 3.6 1.1 4 1.9 0.8 1.2 1.2 1.1 3 -0.5 3.3 -3.1 7.4 -3.8 9.7 -1.7 3.9 3.5 1.4 8.3 -3.6 7.1 -2.1 -0.6 -2.4 -1 -1.4 -2.1 2.7 -3.3 -2.4 -4.9 -5.3 -1.7 -1.3 1.5 -1.7 3.9 -1.7 11.5 l0 9.7 -3.3 0 c-1.9 0 -3.7 -0.3 -4 -0.7z"/>
  <path d="M249.5 176.7 c-0.4 -1.8 -0.5 -7.4 -0.3 -12.5 l0.3 -9.3 3.5 0.3 3.5 0.3 0.3 12.3 0.3 12.2 -3.5 0 c-3.2 0 -3.6 -0.3 -4.1 -3.3z"/>
  <path d="M274.3 160.3 l0.2 -19.8 2.5 -0.3 c4.9 -0.5 5.1 0.2 5.1 19.6 -0.1 13.8 0.2 18.2 1.2 18.2 0.8 0 0.7 0.4 -0.3 1 -0.8 0.5 -3.2 1 -5.2 1 l-3.7 0 0.2 -19.7z"/>
  <path d="M356.7 179.3 c-0.4 -0.3 -0.7 -9.1 -0.7 -19.5 l0 -18.9 3.8 0.3 3.7 0.3 0.3 19.3 0.2 19.2 -3.3 0 c-1.9 0 -3.7 -0.3 -4 -0.7z"/>
  <path d="M191.2 163.8 c-1.4 -1.4 -1.7 -5.2 -0.3 -4.4 1.3 0.9 3.4 -2.1 2.5 -3.6 -0.5 -0.8 0.1 -0.7 1.6 0.3 1.4 0.9 2.6 2.6 2.8 3.8 0.6 4.1 -3.8 6.7 -6.6 3.9z"/>
  <path d="M152.9 162.3 c-0.3 -1.6 -0.4 -7.3 -0.2 -7.3 0.1 0 1.4 0.5 2.8 1.2 3.4 1.5 3.2 6.1 -0.2 6.6 -1.3 0.2 -2.4 0 -2.4 -0.5z"/>
  <path d="M432.9 162.3 c-0.5 -3.1 -0.3 -7.3 0.4 -7.3 4 0 6.5 6.1 3.1 7.4 -2.1 0.8 -3.4 0.8 -3.5 -0.1z"/>
  <path d="M250 149.5 c-1.7 -2.1 -0.4 -6.2 2.2 -7.1 4.2 -1.3 7 5.3 3.4 7.8 -1.8 1.2 -4.3 0.9 -5.6 -0.7z"/>
 </g>
</svg>