<?xml version="1.0" encoding="utf-8"?>
<!DOCTYPE svg PUBLIC "-//W3C//DTD SVG 1.0//EN" "http://www.w3.org/TR/2001/REC-SVG-20010904/DTD/svg10.dtd">
<svg version="1.0" xmlns="http://www.w3.org/2000/svg" width="443px" height="265px" viewBox="0 0 443 265" preserveAspectRatio="xMidYMid meet">
 <g fill="#ff9b1a">
  <path d="M42.1 236.2 c-6.7 -3.3 -11.6 -9 -10.8 -12.4 0.6 -2.2 9 -9.8 10.8 -9.8 0.5 0 1.9 1.6 3.1 3.5 2.5 3.8 4.7 5 7.7 4 2.4 -0.7 4.5 -5.7 3.7 -8.9 -0.3 -1.3 -5 -6.9 -10.5 -12.3 -5.4 -5.4 -10.8 -11.7 -12 -14.1 -6.2 -12.3 -1.4 -27.9 10.4 -33.2 4.9 -2.2 12.6 -2.4 17.2 -0.5 4.4 1.9 11.3 9 11.3 11.8 0 2.3 -8.4 10.6 -10.7 10.7 -0.7 0 -2.3 -1.6 -3.5 -3.5 -2.7 -4.1 -4.9 -5.1 -7.8 -3.5 -2.6 1.4 -3.8 4.3 -3.2 8.3 0.4 2.3 3.1 5.6 10.7 13.1 12.4 12.2 14.7 16.2 14.4 25.2 -0.4 11.2 -5.4 18.8 -14.9 22.6 -5.7 2.3 -10 2 -15.9 -1z m16.8 -2.8 c7.3 -3.7 10.7 -9.2 11 -18 0.3 -8.8 -1.3 -11.6 -13.8 -24.2 -9.4 -9.5 -10.7 -11.2 -10.9 -14.5 -0.3 -4.4 2.2 -10.3 5 -11.8 3.2 -1.7 7.8 -0.1 10 3.7 l2 3.4 3.9 -3.2 c2.1 -1.7 3.9 -3.7 3.9 -4.4 0 -2.8 -6 -8.1 -10.4 -9.4 -4.8 -1.3 -15.6 -0.6 -15.6 1.1 0 0.5 -0.6 0.9 -1.3 0.9 -0.7 0 -2.8 2.3 -4.6 5.2 -2.9 4.3 -3.4 6.2 -3.6 11.6 -0.2 6.2 1.1 12.2 2.7 12.2 0.4 0 0.8 0.6 0.8 1.3 0 0.7 3.9 4.8 8.6 9.2 10.8 10 12.6 12.5 12.6 17.8 0.2 10.6 -10.4 14.4 -15.6 5.6 l-1.8 -3 -4.1 3.8 -4.2 3.8 2.2 2.5 c1.3 1.4 2.3 2.8 2.3 3.2 0 1.2 10.3 5.8 13 5.8 1.4 0 5 -1.2 7.9 -2.6z"/>
  <path d="M97.9 237.6 c-5.9 -1.5 -13.2 -6.7 -15.9 -11.3 -1.2 -2.1 -2.2 -3.9 -2.2 -4 0.1 -0.1 -0.5 -1.5 -1.3 -3 -1.2 -2.3 -1.4 -7.4 -1.2 -26.3 0.2 -24.9 0.4 -25.9 5.6 -31.8 1.1 -1.3 2.1 -2.7 2.3 -3 0.6 -1.5 8.7 -6.3 11.4 -7 4.9 -1.1 12.1 -0.4 16.7 1.6 4.8 2.1 11.7 8.6 11.7 11.1 0 1.8 -7.9 10.1 -9.6 10.1 -0.7 0 -2.8 -1.4 -4.6 -3 -4 -3.7 -6 -4.4 -10.2 -3.6 -2.2 0.4 -3.8 1.6 -5.1 3.9 -1.8 2.8 -2 5.5 -2.3 21.2 -0.4 20 0.3 24.3 4.6 27.1 4.7 3.2 8.8 2.7 13.1 -1.8 l3.8 -3.8 5.2 4.6 c2.8 2.5 5.1 5.3 5.1 6.1 0 2.9 -4.1 7.2 -9.6 9.9 -7.2 3.5 -12.1 4.3 -17.5 3z m11.1 -3.1 c1.9 -0.4 4.6 -1.6 5.9 -2.6 1.3 -1 2.8 -1.6 3.4 -1.2 0.5 0.3 0.7 0.2 0.4 -0.4 -0.4 -0.6 0.4 -2 1.7 -3.2 l2.3 -2.2 -4 -3.9 -3.9 -4 -2 2.5 c-5.4 6.9 -14.6 6.8 -19.7 -0.4 -1.9 -2.6 -2 -4.4 -2.2 -23.9 -0.1 -19.9 0 -21.4 2 -24.6 4.7 -7.5 12.9 -8.7 18.3 -2.7 1.5 1.7 3 3.1 3.3 3.1 0.8 0 7.5 -6.2 7.5 -7 0 -2.3 -8.4 -8.8 -12.7 -9.8 -8.2 -1.9 -18.3 1 -22.8 6.6 -6.4 8.1 -6.4 8.3 -6.4 33.3 0 22.5 0 23.3 2.4 27.9 5.2 10.4 15.2 15 26.5 12.5z"/>
  <path d="M379.1 237.6 c-4.6 -1.3 -13.1 -9.8 -13.1 -13 0 -1.7 1.5 -3.7 4.9 -6.5 2.7 -2.3 5.4 -4.1 6 -4.1 0.6 0 2.1 1.8 3.3 3.9 3 5.2 5.3 5.7 8.8 2.2 2.2 -2.1 2.7 -3.4 2.2 -5.7 -0.8 -4.3 -2.8 -7.1 -11.9 -15.9 -9.7 -9.5 -13.3 -15.6 -13.3 -22.9 0 -5.8 1.5 -11.9 3.3 -13.8 0.7 -0.7 2 -2.5 2.9 -3.9 2.2 -3.5 9 -6.5 15.2 -6.8 7.4 -0.3 15.2 3.9 18.4 9.8 l2.5 4.5 -5.3 4.8 c-2.9 2.6 -5.8 4.8 -6.5 4.8 -0.7 0 -2.5 -2 -4 -4.4 -2.6 -4.1 -3 -4.3 -5.6 -3.4 -3.1 1.1 -4.2 2.8 -4.4 7.5 -0.3 3.6 3.4 8.6 11.5 15.8 7.4 6.7 9.1 8.8 11.7 14.5 4.1 9.1 2.3 18.3 -5.1 26.7 -1.6 1.8 -3.5 3.3 -4.3 3.3 -0.7 0 -1.3 0.4 -1.3 0.9 0 2.2 -10.5 3.4 -15.9 1.7z m13.4 -3.5 c7.3 -3.2 10 -6.7 12 -15.6 1 -4 0.9 -5.8 -0.2 -9 -2.3 -6.8 -3.5 -8.4 -14 -19 -11.3 -11.4 -13.1 -15 -9.8 -20.3 2.4 -3.7 5.6 -6.2 8.2 -6.2 2 0 7.3 5.1 7.3 7.1 0 1.5 5.2 -1.9 7.3 -4.7 1.7 -2.3 1.7 -2.5 0 -4.8 -5.3 -7 -15.9 -9.6 -23.5 -5.6 -4.9 2.6 -6.2 3.9 -9 10 -2.6 5.6 -2.5 12.5 0.3 18.5 2.2 4.7 2.8 5.4 13.9 16 4 3.9 7.6 8 8.1 9.3 2.8 7.2 -1.3 15.2 -7.6 15.2 -2.7 0 -4 -0.7 -6.2 -3.5 -1.5 -1.9 -3.1 -3.5 -3.4 -3.5 -0.4 0 -2.1 1.3 -3.9 2.8 -3.7 3.3 -3.5 6.2 0.8 9.7 7 5.6 12.8 6.7 19.7 3.6z"/>
  <path d="M127.7 236.6 c-0.4 -0.9 -0.7 -20.2 -0.7 -43 0 -48 -1.6 -42.8 12.7 -42.5 17.5 0.3 23.9 2.3 29.6 9 5.1 5.9 7.3 13.8 6 21.4 -1.4 8 -4.4 14.5 -9.3 19.7 -3.4 3.7 -3.9 4.8 -3.4 7.3 1.2 5.8 4.7 10.8 8.4 12 4.4 1.3 5 2.4 5 9 0 7.4 -1.1 8.7 -6.3 7.8 -6.6 -1 -13.8 -6.2 -18.4 -13.1 -2.4 -3.5 -4.3 -7.2 -4.3 -8.2 0 -1 -0.7 -2 -1.5 -2.4 -2 -0.7 -2.4 1.7 -2.8 13.9 l-0.2 10 -7.1 0.3 c-5.8 0.3 -7.2 0.1 -7.7 -1.2z m12.3 -12.3 c0 -9.7 0.2 -11.4 1.8 -12.1 3 -1.6 7.2 -2.3 7.2 -1.3 0 3.3 4.8 13 8 16.1 4.2 4.1 12.5 8.4 14.6 7.6 0.9 -0.4 1.4 -2.2 1.4 -5.5 0 -4.5 -0.2 -5 -2.9 -5.9 -5.2 -1.8 -9.7 -8.4 -10.5 -15.6 -0.3 -2.5 0.4 -3.9 3.8 -7.6 6.2 -6.5 9 -13.8 9.1 -23 0 -6.5 -0.4 -8.1 -2.8 -11.7 -5.4 -8.5 -13.2 -11.3 -31.2 -11.3 l-9 0 0.2 11.3 c0.1 6.1 0.2 24.5 0.2 40.7 l0.1 29.5 5 0 5 0 0 -11.2z"/>
  <path d="M141 182.6 l0 -17.7 5.8 0.2 c7.8 0.3 11.1 1.6 13.3 5.3 4.4 7.2 -0.4 21.3 -8.7 25.6 -1.6 0.8 -3.1 1.8 -3.4 2.2 -0.4 0.4 -2 1.1 -3.8 1.4 l-3.2 0.7 0 -17.7z m4 14.4 c0 -0.5 0.6 -1 1.4 -1 1.5 0 12 -10 11.2 -10.7 -0.2 -0.3 0.2 -2 1 -3.8 1.4 -3.3 1.2 -4.9 -0.8 -9.2 -1.3 -2.6 -2.7 -3.3 -8.6 -4.3 -2.7 -0.4 -4.5 -0.3 -5 0.4 -0.9 1.5 -0.9 29.6 0.1 29.6 0.4 0 0.7 -0.4 0.7 -1z"/>
  <path d="M180.6 237.1 c-0.9 -1.4 -1 -48.4 -0.1 -51.1 0.5 -1.4 0.3 -2 -0.3 -1.6 -0.7 0.4 -0.8 -4.8 -0.5 -15.6 0.3 -9 0.7 -16.4 0.8 -16.6 0.9 -1 13.7 -0.7 14.6 0.4 0.6 0.7 0.8 17 0.7 43 l-0.3 41.9 -7.2 0.3 c-3.9 0.2 -7.4 -0.1 -7.7 -0.7z m12.6 -41.1 c-0.1 -21.7 -0.4 -40.1 -0.7 -40.7 -0.3 -0.8 -2.3 -1.3 -5.2 -1.3 l-4.8 0 0 41 0 40.9 5.5 -0.2 5.5 -0.2 -0.3 -39.5z"/>
  <path d="M202.3 237.4 c-0.9 -0.4 -1.2 -10.7 -1.3 -42.2 0 -38.8 0.1 -41.8 1.7 -42.8 2.4 -1.5 21.1 -1.6 26 -0.2 2.1 0.7 4.1 1.1 4.6 1 0.4 -0.1 0.7 0.2 0.7 0.7 0 0.5 1.3 1.4 3 1.9 1.6 0.6 3.5 2.2 4.2 3.6 0.6 1.5 1.5 2.6 1.9 2.6 1.1 0 3.1 7.5 3.5 13.4 0.3 3.5 -0.3 6.6 -2 10.8 l-2.4 5.9 2.5 4.9 c2.7 5.3 3.5 13.4 2.1 21.9 -1.5 8.6 -8.3 15.6 -17.3 17.8 -3.1 0.7 -25.8 1.3 -27.2 0.7z m27 -3.8 c7.3 -2.1 12.1 -6.8 14.1 -13.7 1.8 -6.5 2.1 -10.5 1.2 -14 -0.4 -1.4 -0.9 -3.2 -1 -4 -0.6 -2.8 -1.9 -5.4 -3.7 -7.2 -1.7 -1.6 -1.7 -1.9 0.5 -6.5 3.3 -6.5 3.9 -11.2 2.5 -18.4 -1 -5.1 -1.9 -6.7 -5.2 -9.9 -2.2 -2 -5.6 -4.1 -7.6 -4.6 -5 -1.3 -24.8 -1.7 -25.5 -0.5 -0.7 1.1 -0.9 78.8 -0.3 79.9 0.8 1.3 19.6 0.5 25 -1.1z"/>
  <path d="M215.7 224.4 c-0.4 -0.4 -0.7 -6.3 -0.7 -13 l0 -12.3 7.5 0.1 c9.2 0.1 10.7 1.3 11.3 9.8 0.7 10.2 -2.4 14 -12.9 15.4 -2.5 0.4 -4.8 0.3 -5.2 0z m13.3 -5.9 c3.2 -3.2 3.6 -11.1 0.7 -14.3 -2 -2.2 -11.6 -3.6 -11.8 -1.7 0 0.6 -0.1 5.1 -0.2 10.2 l-0.2 9.2 4.5 -0.5 c3 -0.3 5.3 -1.2 7 -2.9z"/>
  <path d="M215 176.5 l0 -11.5 6.1 0 c5.3 0 6.4 0.4 8.8 2.8 3.6 3.6 4.1 10.8 1.1 15.7 -2.5 4 -3.6 4.5 -10.6 4.5 l-5.4 0 0 -11.5z m12.1 6.9 c2.6 -2.7 3.5 -8.6 1.9 -12.3 -1 -2.6 -1.7 -3 -6.4 -3.3 l-5.2 -0.3 -0.2 7.5 c-0.2 7.7 0.2 9.3 2.8 10.2 2.7 1 5 0.4 7.1 -1.8z"/>
  <path d="M252.3 237.3 c-1 -0.7 -1.2 -10.6 -1 -42.6 0.2 -35.1 0.4 -41.9 1.6 -42.7 0.8 -0.5 7.2 -0.8 14.1 -0.6 10.9 0.2 13.2 0.5 17 2.5 8.8 4.6 13.2 13 12.5 24 -0.4 6.3 -1.1 8.8 -3.3 11.4 -1.3 1.4 -1.3 2.1 -0.2 4.5 0.7 1.5 1.3 3 1.2 3.5 -0.1 0.4 0.2 0.7 0.7 0.7 1.5 0 3.4 9.9 2.8 14.8 -1.7 14.8 -7.6 22.2 -19.2 23.9 -6.6 0.9 -25.1 1.4 -26.2 0.6z m25.7 -3.4 c7 -1.6 10.3 -3.6 12.8 -7.7 1.3 -2 2.4 -4.1 2.4 -4.7 0 -0.5 0.5 -1.9 1 -3 2.1 -3.8 1 -13.6 -2.3 -20.3 l-3.1 -6.3 2.6 -5 c2.1 -4.4 2.5 -6.2 2.1 -11.9 -0.5 -9.1 -3.1 -14.1 -9.2 -17.7 -4.4 -2.5 -5.7 -2.8 -17.5 -3.1 l-12.8 -0.4 0 40.6 0 40.6 9.8 0 c5.3 0 11.7 -0.5 14.2 -1.1z"/>
  <path d="M265.7 224.4 c-0.4 -0.4 -0.7 -6.3 -0.7 -13.1 l0 -12.3 7.1 0 c6.4 0 7.4 0.3 9.5 2.6 2 2 2.4 3.6 2.4 8.4 0 7.4 -1.2 10.5 -4.7 12.3 -3.3 1.7 -12.5 3.1 -13.6 2.1z m11.1 -3.8 c2.6 -0.9 4.1 -3.9 4.3 -9.2 0.3 -7.3 -1.4 -9.4 -7.8 -9.4 l-5.2 0 -0.3 9.9 -0.3 10 3.7 -0.4 c2.1 -0.2 4.6 -0.6 5.6 -0.9z"/>
  <path d="M265 176.5 l0 -11.5 5.3 0 c9.6 0 12.8 3.1 12.3 12.1 -0.4 8.3 -3.3 10.9 -12 10.9 l-5.6 0 0 -11.5z m11.1 8 c3.6 -2.2 5 -8.6 3 -13.8 -0.7 -1.9 -1.9 -2.6 -4.8 -2.9 -2.1 -0.3 -4.3 -0.3 -4.9 -0.1 -1.1 0.4 -2.6 14.5 -1.8 16.7 0.6 1.5 6.1 1.5 8.5 0.1z"/>
  <path d="M302.6 237.1 c-0.3 -0.5 -0.5 -19.6 -0.3 -42.5 0.2 -46.7 -0.3 -43.6 7.9 -43.6 8.5 0 7.8 -3 7.8 35.9 l0 34.6 20.7 -0.3 c23.8 -0.4 23.3 -0.6 23.3 8.4 0 9.1 2.5 8.4 -30 8.4 -15.9 0 -29.1 -0.4 -29.4 -0.9z m56.6 -7.1 l0.3 -5.5 -21 -0.2 c-11.5 -0.2 -21.6 -0.3 -22.2 -0.3 -1 0 -1.2 -7.6 -1 -34.8 l0.2 -34.9 -4 -0.1 c-2.2 -0.1 -4.6 0.2 -5.3 0.6 -1.1 0.7 -1.4 9.2 -1.5 41.1 l-0.2 40.2 27.2 -0.3 27.1 -0.3 0.4 -5.5z"/>
  <path d="M320.2 218.8 c-0.9 -0.9 -1.2 -9.6 -1.2 -32.9 0 -26.4 0.2 -32 1.4 -33.2 1.2 -1.2 5.3 -1.4 20.3 -1.5 11.2 0 19.3 0.4 20.1 1 1.6 1.3 1.6 12 0 13.6 -0.8 0.8 -5.3 1.2 -13.6 1.2 l-12.3 0 0.3 4.3 c0.3 4.2 0.3 4.2 3.8 3.8 1.9 -0.3 5.7 -0.5 8.5 -0.5 l5 -0.1 0.3 6.9 c0.3 7.6 -0.2 8.6 -5.4 8.6 -1.7 0 -5 1 -7.4 2.3 -4 2.1 -4.3 2.5 -4.4 6.9 l-0.1 4.6 12.5 0.1 c8.4 0.1 12.7 0.6 13.2 1.4 0.4 0.7 0.8 3.5 0.8 6.4 0 8.3 -0.1 8.3 -21.9 8.3 -13.2 0 -19.1 -0.4 -19.9 -1.2z m38.5 -2.1 c0.1 -0.1 0.3 -2.4 0.5 -5.1 l0.3 -4.8 -13.2 0.1 -13.3 0.2 0 -6 c0 -6.7 1.3 -9.1 6.5 -11.8 1.6 -0.9 4.8 -1.7 7 -1.7 l3.9 -0.2 -0.3 -4.9 c-0.1 -2.8 -0.4 -5.3 -0.7 -5.6 -0.4 -0.8 -8.1 0.5 -11.7 2 -4.6 1.8 -4.8 1.6 -4.5 -6.6 l0.3 -7.8 12.8 -0.3 12.7 -0.3 0 -5 0 -5 -18.2 0.1 -18.3 0.2 0.3 31.1 c0.1 17.1 0.6 31.4 1.1 31.7 0.8 0.4 34.3 0.2 34.8 -0.3z"/>
  <path d="M295.3 137.2 c-1.3 -0.2 -2.3 -0.8 -2.3 -1.3 0 -0.5 -0.6 -0.9 -1.3 -0.9 -1.7 0 -6.5 -4.7 -9.1 -8.9 -0.5 -0.8 0.6 -2.6 3.2 -5.2 3.8 -3.7 6.2 -4.9 6.2 -3.1 0 0.5 1.4 2.3 3.1 4 6.5 6.7 15 2.3 14.9 -7.6 -0.1 -4.1 -1.7 -6.3 -13.5 -18.5 -9.5 -9.6 -11.2 -12 -12.7 -16.8 -4 -12.4 1 -24.9 11.6 -29.3 5.5 -2.3 13 -2 18.3 0.6 4.2 2.1 8.9 7.1 8.8 9.4 0 1.2 -7.5 8.3 -8.7 8.4 -0.4 0 -1.6 -1.4 -2.8 -3 -2.8 -4 -5.5 -5.3 -9 -4.5 -3.6 0.8 -7 6 -7 10.7 0 3.5 3.6 10.1 6.8 12.6 1 0.7 5 4.5 9.1 8.5 10.9 10.7 13.6 18.1 10.8 29.4 -1.2 4.8 -7.1 12.3 -9.6 12.3 -0.6 0 -1.1 0.4 -1.1 0.9 0 2.3 -8 3.5 -15.7 2.3z"/>
  <path d="M370 137.3 c-1.4 -0.3 -3.2 -1.1 -4.1 -1.9 -0.9 -0.8 -1.8 -1.2 -2.1 -0.9 -0.9 0.9 -6 -5.6 -8.1 -10.4 -2.6 -6 -1.9 -14.6 1.8 -22.1 1.6 -3 3.3 -5.8 3.9 -6.2 0.8 -0.6 0.8 -0.8 0 -0.8 -3 0 -5.1 -17 -2.8 -22.5 2.2 -5.3 7.1 -11.1 10.8 -12.9 17.3 -8.2 33.8 7.7 25.2 24.2 -0.9 1.7 -2.2 3.4 -2.8 3.9 -0.8 0.5 2.3 1 7.2 1.3 l8.5 0.5 -0.1 10.5 c-0.1 8.5 -0.5 11.4 -2.2 15.2 -2.6 5.6 -2.7 6.2 -0.7 7.8 0.8 0.7 1.5 1.9 1.5 2.8 0 1.6 -9.3 11.2 -10.8 11.2 -0.5 0 -1.7 -0.9 -2.7 -2 -1.1 -1.2 -2.5 -1.8 -3.4 -1.4 -0.9 0.3 -2 0.7 -2.6 0.8 -0.5 0.1 -1.9 0.7 -3 1.3 -2.5 1.4 -10.1 2.3 -13.5 1.6z m13.8 -5.1 c2.3 -1.2 4.2 -1.8 4.2 -1.4 0 0.4 0.4 0 0.9 -0.8 0.8 -1.2 1.4 -0.9 3.7 1.3 l2.7 2.7 3 -3 c1.7 -1.7 3.4 -3 3.9 -3 1.4 0 0.9 -2.3 -1.1 -4.4 -1.9 -2.1 -1.9 -2.2 0.6 -8.1 1.8 -4.3 2.7 -8.5 3.1 -14.7 l0.5 -8.8 -7.2 0 -7.1 0 0 5.4 c0 3 0.4 5.8 1 6.1 1.2 0.7 0.6 6.3 -0.7 7.6 -0.9 0.9 -4.8 -2.9 -8.1 -7.6 -0.4 -0.6 -1.5 -2.1 -2.6 -3.3 -1.9 -2.1 -1.8 -2.2 3.8 -8.3 9.3 -10 11.3 -15.6 8.4 -23.6 -2.3 -6.5 -14.1 -9.8 -21.4 -6 -9.8 5.1 -13.7 16.3 -9.4 27.2 0.6 1.7 1.2 3.2 1.2 3.5 0 0.3 0.3 1 0.5 1.7 0.2 0.6 -0.9 3.7 -2.6 7 -4.4 8.6 -5.5 13.6 -3.9 18.1 0.6 2 1.2 4.1 1.3 4.5 0 1.4 8.8 9.7 9.6 9.1 0.4 -0.2 1 0 1.3 0.5 1.1 1.7 10 0.6 14.4 -1.7z m4.6 -29.3 c-0.4 -0.6 -0.7 -3.3 -0.7 -5.9 l0 -4.7 -2.7 3 c-2.7 3 -2.7 3.1 -0.9 5.1 1.1 1.1 1.9 2.3 1.9 2.8 0 0.4 0.7 0.8 1.6 0.8 0.9 0 1.2 -0.5 0.8 -1.1z"/>
  <path d="M373.3 123.2 c-2.8 -0.4 -5.3 -3.8 -5.3 -7.3 0 -3.1 1.9 -8.9 2.9 -8.9 1.3 0 11.3 12.9 10.7 13.9 -0.9 1.3 -5.8 2.7 -8.3 2.3z m4.9 -3.2 c1.4 0 -4.4 -6.8 -5.9 -6.9 -1.9 -0.1 -1.6 3.9 0.4 6.1 0.9 1 2.3 1.6 3.1 1.3 0.7 -0.3 1.8 -0.5 2.4 -0.5z"/>
  <path d="M372 84.4 c-1.4 -3.5 -1.3 -5 0.5 -8.5 2.8 -5.3 10.5 -5.9 10.5 -0.9 0 1.9 -7.7 11.8 -9.3 11.9 -0.4 0.1 -1.2 -1.1 -1.7 -2.5z m7.3 -7.3 c-0.2 -0.2 0.2 -1 0.8 -1.8 0.9 -1 0.8 -1.3 -0.3 -1.3 -2.5 0 -4.7 2.4 -5.3 5.7 l-0.5 3.2 2.8 -2.7 c1.5 -1.5 2.6 -2.9 2.5 -3.1z"/>
  <path d="M31.3 92.8 l0.3 -44.3 5.3 0 c2.9 0 5.7 0.2 6.1 0.5 0.4 0.3 0.9 4.1 1.1 8.5 0.1 4.4 0.6 8.9 1 10.1 0.4 1.1 1 3.4 1.2 5 2.2 12.2 11.3 31.1 18.5 38.2 2.9 2.8 5.6 5.2 6 5.2 0.4 0 0.6 -14.8 0.5 -32.9 -0.2 -27.1 0 -33.1 1.1 -34.1 0.8 -0.6 3.6 -1 6.3 -0.8 l4.8 0.3 0.3 44.3 0.2 44.3 -6.2 -0.3 -6.3 -0.3 0 -3.7 c0 -3.1 -0.4 -3.8 -2.5 -4.3 -5.6 -1.4 -20 -13.8 -20 -17.2 0 -0.7 -0.4 -1.3 -1 -1.3 -0.5 0 -1 -0.6 -1 -1.4 0 -0.8 -0.7 -1.6 -1.5 -2 -1.3 -0.5 -1.5 1.6 -1.5 14.9 l0 15.5 -6.5 0 -6.5 0 0.3 -44.2z"/>
  <path d="M91.7 92.7 l0.2 -44.2 5.8 0 5.8 0 0.3 44.3 0.2 44.2 -6.2 0 -6.3 0 0.2 -44.3z"/>
  <path d="M112.5 135.8 c-0.3 -0.7 -0.4 -20.6 -0.3 -44.3 l0.3 -43 10.9 -0.3 c14.3 -0.4 20.3 0.9 25.5 5.4 8.2 7.2 10.2 20.9 4.6 31.6 l-2.6 5 2.6 3.7 c3.1 4.5 3.7 6.6 4.2 14.8 0.5 6.5 -1.9 17.3 -3.7 17.3 -0.6 0 -1 0.7 -1 1.5 0 0.8 -1.2 2.2 -2.7 3.2 -1.6 1 -3.1 2.1 -3.4 2.6 -0.3 0.4 -1.4 0.9 -2.5 1.2 -1 0.2 -3.5 0.9 -5.4 1.4 -5.1 1.6 -25.9 1.4 -26.5 -0.1z m23.5 -12.3 c3.6 -0.4 4.9 -1.2 6.7 -3.8 3.2 -4.8 3.7 -9 1.8 -14.6 -2.3 -7.1 -4.2 -7.9 -16.7 -7.3 l-2.8 0.2 0 12.9 c0 13.5 0.3 14.3 4.5 13.6 1.1 -0.2 4 -0.7 6.5 -1z m4.4 -41 c2.6 -3.4 3.9 -8.6 3.2 -13.2 -0.9 -6.8 -3.3 -8.3 -13.8 -8.6 l-5.3 -0.2 0 12.5 0 12.5 7.2 -0.5 c5.7 -0.4 7.5 -0.9 8.7 -2.5z"/>
  <path d="M164.2 92.8 l0.3 -44.3 12 0 c16 0 21.2 1.3 26.2 6.7 4.4 4.7 7.5 20.6 4.8 24.8 -0.9 1.4 -1.1 1.9 -1.4 3.8 0 0.5 -1 1.9 -2.1 3.2 -1.6 1.8 -1.7 2.6 -0.8 4.4 0.6 1.1 1.4 2.3 1.7 2.6 2.8 2.3 5.6 14.5 4.6 19.9 -0.4 2 -0.9 4.7 -1.1 6 -1.3 6.7 -7.7 13.2 -15.1 15.4 -2.7 0.8 -10.1 1.5 -17.1 1.6 l-12.2 0.2 0.2 -44.3z m27.4 29.7 c2.6 -1.1 3.4 -2.1 4.4 -6.3 1.4 -6.2 1 -10.8 -1.4 -14.9 -1.7 -2.8 -2.5 -3.2 -7.5 -3.5 -10.8 -0.7 -10.6 -1 -10.9 13.2 -0.3 9.3 0 12.5 1 13.2 1.6 1 10.2 0 14.4 -1.7z m-1.5 -38.6 c2.3 -1.2 5.6 -7.6 5.4 -10.4 -0.1 -1.1 -0.2 -3.2 -0.3 -4.6 -0.2 -2.7 -3.8 -7.2 -6.1 -7.7 -0.8 -0.2 -3.9 -0.4 -7 -0.5 l-5.6 -0.2 0 12.6 0 12.6 5.9 -0.4 c3.2 -0.2 6.7 -0.8 7.7 -1.4z"/>
  <path d="M216.2 92.8 l0.3 -44.3 6 0 6 0 -0.1 38 -0.1 38 23.3 -0.3 23.3 -0.3 0.6 2.4 c0.4 1.3 0.5 4.1 0.3 6.3 l-0.3 3.9 -29.8 0.3 -29.7 0.2 0.2 -44.2z"/>
  <path d="M235.8 117.4 c-0.4 -0.4 -0.8 -16.1 -0.7 -35 l0 -34.3 19.9 -0.1 19.9 -0.1 0.6 2.3 c0.3 1.3 0.3 3.7 0.1 5.3 -0.3 1.7 -0.5 3.3 -0.5 3.7 -0.1 0.4 -6.4 0.9 -14.2 1 l-14 0.3 -0.2 8.1 c-0.1 5 0.2 8.1 0.8 8 0.6 -0.2 2.6 -0.9 4.5 -1.8 1.9 -0.8 5.8 -1.6 8.6 -1.7 l5.2 -0.1 0.4 4.5 c0.4 5.7 -0.1 6.9 -3.2 7.3 -4.2 0.5 -11.2 3.4 -13.4 5.6 -1.5 1.5 -2.1 3.6 -2.4 8.3 l-0.4 6.2 14.3 0.3 14.4 0.3 0.3 5.8 0.3 5.7 -9.8 0 c-5.4 0 -14.3 0.3 -19.8 0.6 -5.5 0.3 -10.3 0.3 -10.7 -0.2z"/>
 </g>
</svg>