<?xml version="1.0" encoding="UTF-8" standalone="no"?>
<!DOCTYPE svg PUBLIC "-//W3C//DTD SVG 1.1//EN" "http://www.w3.org/Graphics/SVG/1.1/DTD/svg11.dtd">
<svg xmlns="http://www.w3.org/2000/svg" version="1.1" viewBox="0.00 0.00 498.00 245.00">
<path fill="#1f9530" d="
  M 135.21 50.03
  L 130.66 52.66
  A 1.67 1.66 58.2 0 1 128.43 52.13
  L 128.07 51.59
  Q 126.86 49.76 128.63 48.47
  Q 132.26 45.82 137.04 44.63
  A 1.23 1.23 0.0 0 0 137.97 43.45
  L 138.04 39.09
  Q 138.05 37.97 139.17 38.05
  L 142.47 38.29
  Q 143.60 38.37 143.40 39.48
  L 142.82 42.71
  A 0.63 0.63 0.0 0 0 143.49 43.45
  Q 148.84 43.06 153.74 44.26
  Q 154.77 44.51 154.55 45.54
  L 154.02 47.97
  Q 153.72 49.35 152.36 48.94
  Q 150.05 48.23 147.43 48.22
  A 0.50 0.50 0.0 0 0 147.03 49.03
  L 149.62 52.30
  Q 150.82 53.82 149.18 54.85
  L 148.26 55.43
  Q 146.56 56.49 145.44 54.83
  L 142.39 50.33
  A 0.63 0.63 0.0 0 0 141.31 50.39
  Q 139.84 53.22 139.39 56.16
  Q 139.10 58.09 137.23 57.55
  L 136.00 57.19
  Q 133.83 56.57 134.68 54.48
  Q 135.50 52.48 135.95 50.58
  Q 136.22 49.44 135.21 50.03
  Z"
/>
<path fill="#f25413" d="
  M 129.53 55.60
  L 130.89 54.71
  Q 133.46 53.02 132.50 55.94
  L 131.97 57.54
  Q 131.70 58.36 132.54 58.53
  L 139.50 59.94
  A 0.94 0.94 0.0 0 0 140.60 59.26
  L 141.86 54.57
  A 0.56 0.56 0.0 0 1 142.88 54.41
  L 145.37 58.40
  Q 145.90 59.25 146.73 58.70
  L 152.37 54.98
  Q 153.16 54.46 152.67 53.65
  L 151.17 51.10
  A 0.47 0.47 0.0 0 1 151.71 50.41
  L 154.46 51.29
  A 0.76 0.75 -73.2 0 0 155.42 50.77
  L 156.33 47.40
  Q 156.53 46.63 157.13 47.16
  C 163.39 52.67 164.94 61.10 159.13 67.50
  Q 155.17 71.87 150.91 73.13
  C 142.53 75.62 132.97 76.04 126.99 69.51
  C 123.02 65.17 122.58 58.17 125.51 53.14
  A 0.83 0.83 0.0 0 1 126.91 53.08
  L 128.54 55.41
  Q 128.94 55.98 129.53 55.60
  Z"
/>
<path fill="#ffffff" d="
  M 406.53 114.64
  Q 408.37 119.23 412.81 122.63
  C 420.10 128.22 428.08 133.48 434.52 139.70
  C 442.36 147.27 447.68 160.77 440.22 170.72
  C 429.10 185.55 400.81 185.68 393.36 166.78
  Q 393.11 166.16 393.74 165.94
  L 406.86 161.34
  Q 407.46 161.13 407.81 161.66
  C 411.61 167.34 420.23 166.87 425.38 163.74
  C 432.27 159.55 424.99 151.26 420.91 148.16
  Q 413.77 142.74 405.85 136.80
  Q 401.62 133.63 398.17 129.88
  C 389.72 120.70 387.90 108.20 393.93 97.46
  C 400.64 85.50 414.87 79.15 428.23 84.15
  C 437.17 87.50 443.52 95.15 447.57 103.81
  A 0.46 0.45 -24.6 0 1 447.34 104.42
  L 434.49 110.24
  A 0.84 0.83 64.6 0 1 433.41 109.85
  C 431.01 104.98 427.43 99.93 421.97 98.28
  C 413.04 95.58 402.93 105.69 406.53 114.64
  Z"
/>
<path fill="#ffffff" d="
  M 199.77 131.54
  C 204.22 134.06 208.14 136.15 211.57 139.91
  C 217.88 146.82 220.14 156.62 214.98 164.79
  C 210.13 172.46 199.51 176.63 190.76 177.62
  Q 177.05 179.17 161.88 178.39
  A 0.41 0.40 -88.5 0 1 161.50 177.98
  L 161.50 84.94
  Q 161.49 84.21 162.22 84.23
  C 168.87 84.42 176.34 83.61 182.56 85.13
  C 194.90 88.16 207.21 100.51 207.43 113.99
  Q 207.58 123.16 199.66 130.68
  Q 199.14 131.18 199.77 131.54
  Z
  M 177.41 125.02
  C 183.78 123.78 195.76 118.38 190.86 109.81
  Q 186.79 102.69 177.32 100.30
  A 0.45 0.45 0.0 0 0 176.76 100.75
  L 176.80 124.51
  A 0.52 0.51 84.5 0 0 177.41 125.02
  Z
  M 202.06 153.41
  C 199.10 144.84 185.25 142.93 177.59 143.53
  Q 176.73 143.59 176.74 144.45
  L 176.91 162.05
  Q 176.92 162.68 177.54 162.72
  Q 188.28 163.44 197.26 159.93
  C 199.74 158.95 203.15 156.54 202.06 153.41
  Z"
/>
<path fill="#ffffff" d="
  M 265.94 131.90
  C 276.69 136.72 285.80 147.14 282.95 159.49
  C 279.72 173.40 261.39 177.78 249.15 178.28
  Q 238.68 178.72 227.44 178.44
  A 0.45 0.45 0.0 0 1 227.00 177.99
  L 227.00 84.81
  Q 227.00 84.26 227.55 84.26
  C 235.95 84.27 245.26 83.25 253.06 86.79
  C 269.46 94.24 281.43 115.08 265.67 130.36
  Q 264.67 131.33 265.94 131.90
  Z
  M 243.09 125.19
  C 249.49 123.60 262.45 118.01 255.97 108.85
  Q 251.39 102.37 243.13 100.30
  Q 242.50 100.14 242.50 100.79
  L 242.50 124.73
  Q 242.50 125.33 243.09 125.19
  Z
  M 243.05 162.99
  C 251.03 162.88 261.65 162.65 267.14 156.97
  Q 268.36 155.71 267.93 154.11
  C 265.39 144.78 251.22 143.03 243.18 143.55
  Q 242.50 143.59 242.50 144.27
  L 242.50 162.45
  Q 242.50 163.00 243.05 162.99
  Z"
/>
<path fill="#ffffff" d="
  M 65.13 117.85
  L 64.47 178.91
  Q 64.46 179.53 63.84 179.54
  L 49.71 179.74
  A 0.53 0.52 0.5 0 1 49.18 179.21
  L 49.84 88.69
  A 0.34 0.33 -89.2 0 1 50.18 88.35
  L 65.01 88.47
  A 0.62 0.59 -15.1 0 1 65.50 88.74
  L 103.55 145.69
  A 0.41 0.41 0.0 0 0 104.03 145.85
  Q 104.33 145.73 104.28 145.25
  Q 102.26 121.97 100.21 98.48
  A 0.38 0.38 0.0 0 1 100.56 98.06
  L 114.96 96.70
  A 0.56 0.56 0.0 0 1 115.57 97.21
  L 122.59 177.46
  Q 122.64 178.06 122.04 178.11
  L 108.00 179.32
  Q 107.31 179.38 106.93 178.80
  L 66.23 117.53
  Q 65.16 115.91 65.13 117.85
  Z"
/>
<path fill="#ffffff" d="
  M 358.32 130.40
  L 368.99 130.01
  A 0.61 0.61 0.0 0 1 369.62 130.60
  L 370.15 144.80
  A 0.61 0.61 0.0 0 1 369.56 145.43
  L 358.25 145.79
  A 0.61 0.61 0.0 0 0 357.66 146.40
  L 357.51 164.73
  A 0.61 0.61 0.0 0 0 358.14 165.35
  L 381.48 164.49
  A 0.61 0.61 0.0 0 1 382.11 165.08
  L 382.57 179.25
  A 0.61 0.61 0.0 0 1 381.98 179.88
  L 342.31 181.28
  A 0.61 0.61 0.0 0 1 341.67 180.66
  L 342.27 89.04
  A 0.61 0.61 0.0 0 1 342.90 88.44
  L 382.12 90.13
  A 0.61 0.61 0.0 0 1 382.70 90.77
  L 382.05 105.04
  A 0.61 0.61 0.0 0 1 381.41 105.62
  L 358.56 104.56
  A 0.61 0.61 0.0 0 0 357.92 105.16
  L 357.69 129.78
  A 0.61 0.61 0.0 0 0 358.32 130.40
  Z"
/>
<path fill="#ffffff" d="
  M 310.80 163.72
  L 332.70 163.81
  A 0.57 0.57 0.0 0 1 333.27 164.38
  L 333.16 178.69
  A 0.57 0.57 0.0 0 1 332.59 179.26
  L 295.32 179.24
  A 0.57 0.57 0.0 0 1 294.75 178.67
  L 294.74 91.38
  A 0.57 0.57 0.0 0 1 295.31 90.81
  L 309.63 90.81
  A 0.57 0.57 0.0 0 1 310.20 91.38
  L 310.23 163.15
  A 0.57 0.57 0.0 0 0 310.80 163.72
  Z"
/>
<rect fill="#ffffff" x="136.74" y="91.09" width="15.50" height="87.18" rx="0.37"/>
<path fill="#f25413" d="
  M 283.56 209.09
  C 297.66 203.33 302.43 216.12 299.73 227.25
  C 297.82 235.12 290.05 237.08 283.34 233.13
  A 0.78 0.78 0.0 0 0 282.31 233.34
  Q 281.51 234.45 280.14 234.47
  Q 277.23 234.50 274.66 234.54
  Q 273.89 234.55 273.89 233.78
  L 273.84 195.66
  Q 273.84 193.66 275.84 193.83
  L 280.27 194.23
  Q 282.60 194.43 282.61 196.77
  L 282.66 208.49
  Q 282.67 209.45 283.56 209.09
  Z
  M 282.67 210.42
  L 282.63 231.98
  A 0.28 0.28 0.0 0 0 282.91 232.26
  L 283.84 232.26
  A 9.40 7.37 -89.9 0 0 291.23 222.88
  L 291.23 219.56
  A 9.40 7.37 -89.9 0 0 283.88 210.14
  L 282.95 210.14
  A 0.28 0.28 0.0 0 0 282.67 210.42
  Z"
/>
<path fill="#f25413" d="
  M 324.29 209.00
  C 336.97 204.28 342.51 213.36 341.03 224.78
  C 339.87 233.72 332.64 237.98 324.25 233.24
  Q 323.70 232.93 323.21 233.33
  L 322.31 234.06
  Q 321.81 234.46 321.17 234.48
  L 315.28 234.67
  Q 314.63 234.69 314.63 234.03
  L 314.62 195.51
  Q 314.62 193.63 316.49 193.80
  L 321.33 194.25
  Q 323.46 194.45 323.46 196.58
  L 323.50 208.45
  Q 323.50 209.29 324.29 209.00
  Z
  M 323.48 210.68
  L 323.48 231.76
  A 0.51 0.51 0.0 0 0 323.99 232.27
  L 324.33 232.27
  A 8.89 7.63 90.0 0 0 331.96 223.38
  L 331.96 219.06
  A 8.89 7.63 -90.0 0 0 324.33 210.17
  L 323.99 210.17
  A 0.51 0.51 0.0 0 0 323.48 210.68
  Z"
/>
<path fill="#f25413" d="
  M 364.31 195.87
  L 364.25 233.63
  A 1.47 1.47 0.0 0 1 362.71 235.10
  L 357.09 234.84
  A 1.47 1.47 0.0 0 1 355.69 233.37
  L 355.60 195.67
  A 1.47 1.47 0.0 0 1 357.12 194.20
  L 362.89 194.40
  A 1.47 1.47 0.0 0 1 364.31 195.87
  Z"
/>
<circle fill="#f25413" cx="253.33" cy="200.55" r="4.76"/>
<path fill="#f25413" d="
  M 65.47 213.06
  C 57.52 204.87 64.12 194.72 74.72 196.96
  C 78.63 197.79 80.53 201.51 79.45 205.25
  Q 78.32 209.11 74.61 211.12
  A 0.52 0.51 53.0 0 0 74.50 211.94
  L 81.46 218.81
  A 0.68 0.68 0.0 0 0 82.54 218.63
  C 85.28 213.19 93.58 207.94 98.19 215.00
  C 100.96 219.25 97.73 223.56 93.08 223.56
  Q 92.64 223.56 92.35 223.23
  C 91.51 222.24 91.32 221.00 90.39 219.99
  Q 87.42 216.79 83.65 219.55
  A 0.79 0.79 0.0 0 0 83.56 220.75
  Q 89.73 226.96 97.29 233.13
  Q 98.87 234.42 96.83 234.39
  C 93.01 234.33 88.48 234.49 85.37 231.94
  Q 82.88 229.91 80.46 227.52
  Q 79.92 226.98 79.56 227.65
  C 76.74 232.98 73.79 236.49 67.30 236.36
  C 61.87 236.26 57.52 232.78 56.64 227.46
  C 55.53 220.86 59.56 216.49 65.24 214.13
  A 0.66 0.66 0.0 0 0 65.47 213.06
  Z
  M 77.91 204.43
  C 78.67 199.57 73.95 196.47 70.15 199.47
  C 66.68 202.21 70.29 207.78 72.64 210.01
  A 0.67 0.66 -35.5 0 0 73.39 210.13
  Q 77.32 208.27 77.91 204.43
  Z
  M 78.20 225.74
  L 67.58 215.23
  A 1.06 1.06 0.0 0 0 66.08 215.24
  L 65.78 215.54
  A 8.33 7.98 44.7 0 0 66.09 227.07
  L 66.38 227.35
  A 8.33 7.98 44.7 0 0 77.91 227.54
  L 78.20 227.24
  A 1.06 1.06 0.0 0 0 78.20 225.74
  Z"
/>
<path fill="#f25413" d="
  M 222.83 211.85
  Q 224.81 209.69 227.26 208.53
  C 230.51 207.00 235.73 207.66 236.36 211.92
  C 237.08 216.77 231.92 218.94 228.13 216.06
  A 1.11 1.10 46.8 0 1 228.18 214.25
  C 230.02 213.04 228.44 210.63 226.40 211.44
  C 224.68 212.12 222.15 213.62 222.13 215.73
  Q 222.06 224.88 222.07 233.55
  Q 222.07 235.18 220.45 235.05
  L 216.13 234.69
  Q 213.55 234.48 213.55 231.88
  L 213.59 209.41
  A 0.47 0.47 0.0 0 1 214.07 208.94
  C 216.55 209.00 221.57 207.94 221.95 211.56
  A 0.51 0.51 0.0 0 0 222.83 211.85
  Z"
/>
<path fill="#f25413" d="
  M 144.00 227.21
  C 141.25 233.64 149.16 236.99 153.09 232.53
  C 154.83 230.56 153.42 228.11 151.44 227.07
  Q 146.96 224.71 142.87 222.33
  C 138.18 219.61 135.64 212.58 141.83 209.59
  Q 148.36 206.45 155.35 209.28
  C 162.59 212.20 156.31 221.43 151.25 215.46
  A 0.71 0.70 46.3 0 1 151.27 214.52
  L 152.25 213.48
  Q 152.68 213.02 152.68 212.39
  C 152.65 208.78 148.33 208.46 146.01 210.02
  A 1.71 1.70 -13.1 0 0 145.29 211.17
  Q 144.95 213.47 147.16 214.73
  Q 151.71 217.33 155.95 219.83
  C 161.98 223.39 162.27 231.80 155.28 234.55
  Q 147.97 237.42 140.91 234.18
  C 134.51 231.24 138.07 221.88 143.63 225.89
  A 1.10 1.10 0.0 0 1 144.00 227.21
  Z"
/>
<path fill="#f25413" d="
  M 192.29 209.42
  C 188.85 208.14 185.57 210.97 184.52 214.10
  Q 182.54 220.04 185.09 225.81
  C 187.58 231.47 193.70 231.14 197.94 227.80
  A 0.64 0.64 0.0 0 1 198.97 228.18
  Q 199.03 228.47 198.97 228.77
  Q 198.90 229.15 198.68 229.46
  Q 192.95 237.49 183.55 234.90
  C 175.07 232.56 173.41 221.82 176.49 214.78
  C 179.52 207.85 189.38 206.30 195.48 209.56
  Q 199.84 211.88 198.31 216.37
  C 196.58 221.46 188.55 219.65 189.39 213.50
  A 0.78 0.77 5.0 0 1 190.18 212.84
  L 191.61 212.90
  Q 192.10 212.92 192.52 212.68
  C 193.83 211.93 193.77 209.98 192.29 209.42
  Z"
/>
<path fill="#f25413" d="
  M 388.08 221.46
  C 387.81 227.44 392.30 232.11 398.50 230.04
  Q 400.20 229.48 402.07 228.50
  Q 403.99 227.50 402.88 229.36
  Q 397.78 237.90 387.72 235.07
  C 378.42 232.45 376.93 219.85 382.05 212.93
  C 385.18 208.71 390.53 207.20 395.54 208.56
  Q 403.66 210.75 403.87 220.58
  A 0.42 0.42 0.0 0 1 403.45 221.01
  L 388.52 221.03
  A 0.45 0.44 -88.6 0 0 388.08 221.46
  Z
  M 388.36 219.48
  L 395.34 219.50
  A 0.55 0.55 0.0 0 0 395.89 218.95
  L 395.89 218.78
  A 9.44 3.91 -89.8 0 0 392.02 209.33
  L 391.76 209.33
  A 9.44 3.91 -89.8 0 0 387.81 218.76
  L 387.81 218.93
  A 0.55 0.55 0.0 0 0 388.36 219.48
  Z"
/>
<path fill="#f25413" d="
  M 426.43 209.72
  A 2.10 2.10 0.0 0 0 425.30 211.72
  Q 425.43 213.92 427.42 215.01
  Q 431.52 217.24 435.52 219.51
  C 442.20 223.30 442.57 232.18 434.60 234.85
  Q 426.18 237.68 419.56 233.25
  C 415.25 230.37 417.60 223.09 423.53 225.63
  Q 424.00 225.83 424.01 226.34
  Q 424.04 227.55 423.68 228.71
  C 422.10 233.93 428.84 235.93 432.37 233.30
  C 434.80 231.49 433.92 228.41 431.55 227.06
  Q 427.53 224.78 423.42 222.63
  C 417.42 219.49 415.58 211.36 423.47 208.89
  Q 430.24 206.76 436.00 209.59
  Q 439.37 211.25 438.45 214.79
  C 437.52 218.39 433.11 217.67 431.28 215.42
  Q 430.91 214.97 431.31 214.54
  C 432.87 212.87 433.64 211.00 431.04 209.64
  Q 428.82 208.47 426.43 209.72
  Z"
/>
<rect fill="#f25413" x="-4.32" y="-12.89" transform="translate(253.32,221.66) rotate(-0.3)" width="8.64" height="25.78" rx="1.48"/>
</svg>
