<?xml version="1.0" encoding="UTF-8" standalone="no"?>
<!DOCTYPE svg PUBLIC "-//W3C//DTD SVG 1.1//EN" "http://www.w3.org/Graphics/SVG/1.1/DTD/svg11.dtd">
<svg xmlns="http://www.w3.org/2000/svg" version="1.1" viewBox="0.00 0.00 498.00 245.00">
<path fill="#f25413" d="
  M 136.00 50.79
  A 0.61 0.61 0.0 0 0 135.12 50.06
  L 130.91 52.54
  Q 129.07 53.63 128.12 51.71
  L 127.87 51.22
  Q 127.06 49.57 128.55 48.49
  Q 132.39 45.72 136.87 44.67
  A 1.42 1.42 0.0 0 0 137.97 43.31
  L 138.03 39.07
  Q 138.05 37.95 139.17 38.03
  L 142.74 38.29
  Q 143.64 38.36 143.47 39.24
  L 142.83 42.68
  A 0.64 0.64 0.0 0 0 143.52 43.44
  Q 148.25 43.01 153.57 44.16
  Q 154.81 44.43 154.54 45.67
  L 154.04 47.93
  Q 153.72 49.37 152.31 48.93
  Q 149.95 48.19 147.40 48.20
  A 0.52 0.51 -19.6 0 0 147.00 49.04
  L 149.48 52.07
  Q 150.96 53.87 148.95 55.04
  L 148.24 55.45
  Q 146.53 56.45 145.41 54.81
  L 142.31 50.22
  A 0.56 0.56 0.0 0 0 141.35 50.27
  Q 139.80 53.10 139.34 56.30
  Q 139.07 58.14 137.29 57.59
  L 135.79 57.13
  Q 133.93 56.55 134.59 54.72
  L 136.00 50.79
  Z"
/>
<path fill="#f25413" d="
  M 152.60 53.46
  Q 152.13 52.86 151.74 52.21
  Q 150.17 49.61 152.98 50.76
  L 154.17 51.24
  A 0.97 0.97 0.0 0 0 155.48 50.57
  L 156.24 47.50
  A 0.62 0.62 0.0 0 1 157.25 47.18
  C 163.38 52.53 164.93 60.83 159.49 67.16
  C 154.31 73.19 148.83 74.27 141.53 74.82
  C 133.50 75.42 125.10 71.33 123.76 62.67
  Q 122.95 57.47 125.45 53.15
  A 0.89 0.89 0.0 0 1 126.96 53.09
  L 128.59 55.48
  A 0.65 0.64 55.3 0 0 129.49 55.65
  L 131.39 54.33
  Q 131.81 54.04 132.27 54.24
  Q 132.93 54.53 132.75 55.27
  Q 132.50 56.28 132.08 57.26
  A 0.95 0.95 0.0 0 0 132.77 58.57
  L 139.25 59.88
  A 1.22 1.22 0.0 0 0 140.68 58.99
  L 141.84 54.50
  A 0.58 0.57 36.6 0 1 142.89 54.35
  L 145.38 58.41
  Q 145.89 59.25 146.71 58.70
  L 152.34 54.98
  Q 153.28 54.36 152.60 53.46
  Z"
/>
<path fill="#ffffff" d="
  M 423.65 98.90
  C 416.69 95.71 409.27 99.92 406.67 106.71
  C 403.49 115.02 410.05 120.87 416.11 125.16
  Q 424.50 131.10 431.76 137.06
  C 443.72 146.89 450.19 165.11 434.96 175.90
  C 422.06 185.04 399.60 183.56 393.23 166.62
  A 0.49 0.48 -20.6 0 1 393.52 165.99
  L 407.21 161.19
  Q 407.52 161.08 407.68 161.37
  C 411.17 167.56 420.54 166.74 425.49 163.70
  C 432.15 159.62 425.23 151.70 421.28 148.48
  C 414.60 143.05 407.04 138.39 400.64 132.51
  C 391.42 124.04 387.79 112.88 392.27 100.87
  C 397.30 87.38 412.62 79.39 426.35 83.44
  C 436.22 86.34 443.22 94.45 447.58 103.72
  Q 447.83 104.24 447.30 104.48
  L 434.35 110.33
  Q 433.82 110.57 433.54 110.05
  C 431.13 105.53 428.31 101.03 423.65 98.90
  Z"
/>
<path fill="#ffffff" d="
  M 199.79 131.59
  Q 204.40 133.73 207.95 136.48
  C 216.71 143.28 221.30 155.04 214.94 164.97
  C 209.50 173.47 197.39 177.30 187.54 178.05
  Q 174.73 179.03 161.94 178.46
  Q 161.47 178.44 161.47 177.96
  L 161.46 84.61
  A 0.37 0.37 0.0 0 1 161.83 84.24
  Q 169.53 84.22 176.76 84.28
  C 189.77 84.38 203.98 96.32 206.85 108.78
  Q 209.76 121.36 199.65 130.73
  Q 199.08 131.26 199.79 131.59
  Z
  M 176.85 124.44
  A 0.59 0.59 0.0 0 0 177.56 125.02
  C 183.76 123.78 195.62 118.54 190.85 109.81
  Q 187.18 103.08 177.51 100.30
  Q 176.81 100.10 176.81 100.83
  L 176.85 124.44
  Z
  M 190.94 144.85
  C 186.52 143.56 182.00 143.11 177.39 143.56
  Q 176.81 143.62 176.81 144.20
  L 176.92 162.24
  Q 176.92 162.79 177.47 162.82
  Q 188.90 163.35 197.25 159.93
  C 199.25 159.10 202.58 157.02 202.27 154.40
  C 201.69 149.48 195.47 146.18 190.94 144.85
  Z"
/>
<path fill="#ffffff" d="
  M 265.46 130.63
  A 0.69 0.69 0.0 0 0 265.66 131.76
  C 275.23 135.90 283.34 144.11 283.51 154.92
  C 283.77 170.70 265.78 177.00 252.92 178.06
  Q 242.40 178.93 227.48 178.48
  Q 226.97 178.46 226.97 177.95
  L 226.98 84.55
  A 0.27 0.26 90.0 0 1 227.24 84.28
  Q 235.60 84.15 242.84 84.30
  C 251.98 84.50 261.21 90.37 266.88 97.68
  C 275.17 108.37 275.82 120.65 265.46 130.63
  Z
  M 242.90 100.23
  A 0.31 0.31 0.0 0 0 242.51 100.53
  L 242.51 124.73
  A 0.48 0.48 0.0 0 0 243.11 125.19
  C 249.40 123.49 261.99 118.43 256.21 109.28
  Q 252.02 102.64 242.90 100.23
  Z
  M 256.04 162.01
  C 260.02 161.33 265.82 159.57 267.92 155.79
  Q 268.19 155.31 268.08 154.77
  C 266.20 145.23 251.77 142.90 243.17 143.53
  Q 242.51 143.58 242.51 144.24
  L 242.51 162.30
  Q 242.51 162.90 243.11 162.91
  Q 249.59 163.10 256.04 162.01
  Z"
/>
<path fill="#ffffff" d="
  M 100.48 98.00
  L 115.20 96.64
  A 0.34 0.34 0.0 0 1 115.57 96.95
  L 122.64 177.74
  A 0.34 0.34 0.0 0 1 122.33 178.11
  L 107.49 179.39
  A 0.34 0.34 0.0 0 1 107.18 179.24
  L 65.79 116.93
  A 0.34 0.34 0.0 0 0 65.17 117.11
  L 64.50 179.28
  A 0.34 0.34 0.0 0 1 64.17 179.61
  L 49.49 179.73
  A 0.34 0.34 0.0 0 1 49.14 179.38
  L 49.82 88.65
  A 0.34 0.34 0.0 0 1 50.16 88.31
  L 65.12 88.41
  A 0.34 0.34 0.0 0 1 65.40 88.56
  L 103.67 145.83
  A 0.34 0.34 0.0 0 0 104.29 145.61
  L 100.17 98.37
  A 0.34 0.34 0.0 0 1 100.48 98.00
  Z"
/>
<path fill="#ffffff" d="
  M 358.30 130.38
  L 369.06 129.99
  A 0.58 0.58 0.0 0 1 369.66 130.55
  L 370.17 144.86
  A 0.58 0.58 0.0 0 1 369.61 145.46
  L 358.23 145.81
  A 0.58 0.58 0.0 0 0 357.67 146.39
  L 357.58 164.74
  A 0.58 0.58 0.0 0 0 358.18 165.32
  L 381.53 164.46
  A 0.58 0.58 0.0 0 1 382.13 165.02
  L 382.61 179.30
  A 0.58 0.58 0.0 0 1 382.05 179.90
  L 342.25 181.31
  A 0.58 0.58 0.0 0 1 341.65 180.73
  L 342.24 88.98
  A 0.58 0.58 0.0 0 1 342.84 88.41
  L 382.18 90.14
  A 0.58 0.58 0.0 0 1 382.73 90.75
  L 382.07 105.12
  A 0.58 0.58 0.0 0 1 381.46 105.67
  L 358.57 104.58
  A 0.58 0.58 0.0 0 0 357.96 105.15
  L 357.70 129.79
  A 0.58 0.58 0.0 0 0 358.30 130.38
  Z"
/>
<path fill="#ffffff" d="
  M 310.71 163.74
  L 332.80 163.78
  A 0.48 0.48 0.0 0 1 333.28 164.26
  L 333.17 178.80
  A 0.48 0.48 0.0 0 1 332.69 179.28
  L 295.23 179.23
  A 0.48 0.48 0.0 0 1 294.75 178.75
  L 294.71 91.31
  A 0.48 0.48 0.0 0 1 295.19 90.83
  L 309.73 90.80
  A 0.48 0.48 0.0 0 1 310.21 91.28
  L 310.23 163.26
  A 0.48 0.48 0.0 0 0 310.71 163.74
  Z"
/>
<rect fill="#ffffff" x="136.72" y="91.05" width="15.52" height="87.30" rx="0.31"/>
<path fill="#f25413" d="
  M 282.29 233.40
  Q 281.76 234.39 280.59 234.45
  Q 277.52 234.62 274.43 234.59
  A 0.57 0.57 0.0 0 1 273.87 234.02
  L 273.83 195.47
  Q 273.82 193.65 275.64 193.80
  Q 279.95 194.18 280.59 194.23
  A 2.25 2.24 2.5 0 1 282.64 196.46
  L 282.68 208.71
  A 0.51 0.51 0.0 0 0 283.42 209.17
  C 293.76 204.20 300.46 211.05 300.47 221.01
  C 300.47 224.83 300.00 229.10 297.38 231.99
  C 293.59 236.18 287.91 236.02 283.27 233.14
  A 0.71 0.70 -59.6 0 0 282.29 233.40
  Z
  M 282.65 211.51
  L 282.65 230.89
  A 1.29 1.29 0.0 0 0 283.94 232.18
  L 284.56 232.18
  A 9.89 6.67 90.0 0 0 291.23 222.29
  L 291.23 220.11
  A 9.89 6.67 -90.0 0 0 284.56 210.22
  L 283.94 210.22
  A 1.29 1.29 0.0 0 0 282.65 211.51
  Z"
/>
<path fill="#f25413" d="
  M 324.20 209.03
  C 337.12 203.68 342.63 213.88 341.02 225.07
  C 339.71 234.22 332.43 237.81 324.19 233.23
  Q 323.67 232.93 323.21 233.32
  L 322.28 234.11
  Q 321.81 234.50 321.20 234.52
  L 315.07 234.70
  A 0.44 0.44 0.0 0 1 314.62 234.26
  L 314.62 195.45
  Q 314.62 193.64 316.43 193.79
  Q 318.99 194.02 321.55 194.24
  A 2.10 2.10 0.0 0 1 323.46 196.33
  L 323.49 208.56
  Q 323.49 209.33 324.20 209.03
  Z
  M 323.44 210.55
  L 323.52 231.87
  A 0.28 0.28 0.0 0 0 323.80 232.15
  L 325.12 232.15
  A 9.17 6.86 89.8 0 0 331.95 222.96
  L 331.93 219.42
  A 9.17 6.86 89.8 0 0 325.04 210.27
  L 323.72 210.27
  A 0.28 0.28 0.0 0 0 323.44 210.55
  Z"
/>
<path fill="#f25413" d="
  M 355.63 233.40
  L 355.62 195.63
  A 1.43 1.43 0.0 0 1 357.10 194.20
  L 362.98 194.39
  A 1.43 1.43 0.0 0 1 364.37 195.82
  L 364.28 233.71
  A 1.43 1.43 0.0 0 1 362.78 235.14
  L 356.98 234.82
  A 1.43 1.43 0.0 0 1 355.63 233.40
  Z"
/>
<circle fill="#f25413" cx="253.34" cy="200.56" r="4.80"/>
<path fill="#f25413" d="
  M 83.98 221.21
  Q 90.69 227.90 96.87 232.74
  Q 99.47 234.78 96.18 234.43
  Q 93.88 234.19 91.36 234.14
  A 10.14 10.13 66.8 0 1 84.69 231.47
  L 80.30 227.44
  Q 79.81 226.98 79.56 227.61
  C 76.93 234.26 71.37 237.69 64.32 236.02
  C 58.77 234.70 55.40 228.65 56.63 223.11
  C 57.65 218.46 61.06 215.98 65.30 214.03
  Q 66.07 213.68 65.48 213.08
  C 58.32 205.77 62.59 195.92 73.09 196.65
  C 82.10 197.28 81.41 207.95 74.54 211.12
  A 0.45 0.44 -35.0 0 0 74.41 211.84
  L 81.51 218.82
  A 0.61 0.61 0.0 0 0 82.48 218.67
  Q 84.63 214.47 88.41 212.55
  C 91.78 210.84 95.88 211.50 98.11 214.78
  C 100.93 218.91 98.21 223.45 93.35 223.63
  A 1.57 1.57 0.0 0 1 91.76 222.43
  Q 91.29 220.55 89.31 219.06
  Q 87.63 217.79 85.66 218.55
  Q 84.96 218.82 84.44 219.02
  Q 82.53 219.76 83.98 221.21
  Z
  M 77.86 204.86
  C 79.65 195.93 66.84 196.84 68.92 203.99
  Q 69.88 207.28 72.63 210.00
  A 0.71 0.71 0.0 0 0 73.44 210.13
  Q 77.18 208.28 77.86 204.86
  Z
  M 78.24 225.78
  L 67.51 215.24
  A 1.01 1.01 0.0 0 0 66.09 215.26
  L 65.74 215.61
  A 8.38 7.93 44.5 0 0 66.15 227.14
  L 66.37 227.35
  A 8.38 7.93 44.5 0 0 77.90 227.57
  L 78.25 227.21
  A 1.01 1.01 0.0 0 0 78.24 225.78
  Z"
/>
<path fill="#f25413" d="
  M 222.81 211.79
  C 225.60 208.80 229.41 206.76 233.29 208.18
  C 239.28 210.38 236.13 219.58 229.58 217.07
  Q 228.28 216.57 227.64 215.29
  A 0.62 0.62 0.0 0 1 227.93 214.46
  Q 228.57 214.14 228.85 213.53
  A 1.62 1.62 0.0 0 0 226.98 211.29
  Q 224.46 211.92 222.48 214.30
  Q 222.14 214.70 222.14 215.23
  L 222.11 233.70
  Q 222.11 235.13 220.68 235.07
  Q 218.33 234.98 216.23 234.73
  Q 213.56 234.41 213.56 231.72
  L 213.58 209.30
  A 0.41 0.40 89.3 0 1 213.97 208.89
  Q 216.73 208.81 219.45 209.00
  Q 221.79 209.16 221.94 211.48
  Q 222.01 212.64 222.81 211.79
  Z"
/>
<path fill="#f25413" d="
  M 152.66 212.73
  C 152.98 209.29 149.24 208.49 146.73 209.57
  C 144.51 210.54 144.91 213.25 146.71 214.40
  Q 150.60 216.89 154.82 219.06
  Q 156.91 220.14 158.52 221.98
  C 161.83 225.75 161.10 231.57 156.55 233.97
  Q 149.78 237.53 141.69 234.64
  Q 140.00 234.04 138.78 232.68
  C 135.07 228.57 139.19 222.49 143.81 225.98
  Q 144.37 226.41 144.08 227.05
  C 142.63 230.24 143.85 233.88 147.51 234.47
  C 152.49 235.27 156.88 230.22 151.27 226.99
  Q 147.26 224.68 143.45 222.76
  C 137.82 219.93 135.34 212.01 142.62 209.16
  Q 149.39 206.51 155.79 209.46
  C 158.34 210.64 159.65 213.59 157.84 216.02
  C 156.12 218.31 152.55 217.49 151.10 215.30
  Q 150.83 214.89 151.18 214.55
  L 152.33 213.42
  A 1.11 1.04 -21.1 0 0 152.66 212.73
  Z"
/>
<path fill="#f25413" d="
  M 193.19 212.03
  A 1.79 1.79 0.0 0 0 192.10 209.33
  Q 189.50 208.69 187.39 210.16
  C 182.81 213.35 183.07 221.27 184.99 225.74
  C 187.48 231.53 193.76 231.19 198.06 227.72
  Q 198.56 227.31 198.89 227.87
  Q 199.24 228.49 198.87 229.10
  Q 194.97 235.64 187.23 235.55
  C 177.99 235.43 173.82 227.05 175.26 218.58
  Q 176.94 208.70 187.77 207.92
  C 192.56 207.57 200.38 209.89 198.47 216.09
  Q 197.33 219.77 192.97 219.18
  A 4.10 4.10 0.0 0 1 189.71 216.64
  Q 189.25 215.50 189.26 214.17
  Q 189.28 212.50 190.91 212.86
  Q 192.44 213.19 193.19 212.03
  Z"
/>
<path fill="#f25413" d="
  M 387.98 221.75
  C 388.34 229.65 394.67 232.97 401.57 228.70
  Q 404.29 227.02 402.69 229.79
  C 400.56 233.50 396.47 235.94 392.23 235.82
  Q 380.20 235.47 379.15 223.13
  C 378.44 214.74 384.36 207.42 392.97 208.09
  C 400.19 208.65 403.79 213.41 403.92 220.37
  A 0.68 0.68 0.0 0 1 403.24 221.06
  L 388.61 221.09
  Q 387.95 221.10 387.98 221.75
  Z
  M 388.23 219.45
  L 395.49 219.47
  A 0.41 0.41 0.0 0 0 395.90 219.06
  L 395.90 218.74
  A 9.41 3.94 -89.8 0 0 392.00 209.32
  L 391.80 209.32
  A 9.41 3.94 -89.8 0 0 387.82 218.72
  L 387.82 219.04
  A 0.41 0.41 0.0 0 0 388.23 219.45
  Z"
/>
<path fill="#f25413" d="
  M 431.92 213.92
  A 2.41 2.41 0.0 0 0 432.13 210.48
  Q 430.09 208.23 426.74 209.54
  A 2.32 2.32 0.0 0 0 425.30 212.06
  Q 425.61 214.03 427.48 215.02
  Q 431.87 217.34 435.62 219.52
  C 442.27 223.38 442.59 232.11 434.76 234.83
  Q 426.40 237.73 419.74 233.42
  Q 416.73 231.46 417.50 227.96
  Q 418.14 225.02 421.15 225.12
  Q 421.54 225.13 421.92 225.14
  Q 424.88 225.24 423.88 228.03
  Q 422.55 231.75 425.61 233.69
  C 430.77 236.98 438.23 230.50 430.58 226.47
  Q 426.75 224.45 423.17 222.55
  C 417.01 219.29 415.84 211.35 423.55 208.83
  Q 429.83 206.77 435.64 209.33
  C 438.29 210.50 439.63 213.09 438.05 215.77
  C 436.53 218.35 432.68 217.52 431.20 215.36
  Q 430.85 214.85 431.32 214.44
  L 431.92 213.92
  Z"
/>
<rect fill="#f25413" x="-4.34" y="-12.91" transform="translate(253.32,221.67) rotate(-0.3)" width="8.68" height="25.82" rx="1.43"/>
</svg>
